<?xml version="1.0" encoding="UTF-8" standalone="no"?>
<!-- Created with Inkscape (http://www.inkscape.org/) -->

<svg
   xmlns:dc="http://purl.org/dc/elements/1.1/"
   xmlns:cc="http://creativecommons.org/ns#"
   xmlns:rdf="http://www.w3.org/1999/02/22-rdf-syntax-ns#"
   xmlns:svg="http://www.w3.org/2000/svg"
   xmlns="http://www.w3.org/2000/svg"
   xmlns:sodipodi="http://sodipodi.sourceforge.net/DTD/sodipodi-0.dtd"
   xmlns:inkscape="http://www.inkscape.org/namespaces/inkscape"
   width="1477.582"
   height="1783.8267"
   id="svg2"
   version="1.1"
   inkscape:version="0.48.3.1 r9886"
   sodipodi:docname="New document 1">
  <defs
     id="defs4" />
  <sodipodi:namedview
     id="base"
     pagecolor="#ffffff"
     bordercolor="#666666"
     borderopacity="1.0"
     inkscape:pageopacity="0.0"
     inkscape:pageshadow="2"
     inkscape:zoom="0.35"
     inkscape:cx="679.37786"
     inkscape:cy="1001.9191"
     inkscape:document-units="px"
     inkscape:current-layer="layer1"
     showgrid="false"
     fit-margin-top="0"
     fit-margin-left="0"
     fit-margin-right="0"
     fit-margin-bottom="0"
     inkscape:window-width="1412"
     inkscape:window-height="925"
     inkscape:window-x="77"
     inkscape:window-y="35"
     inkscape:window-maximized="0" />
  <metadata
     id="metadata7">
    <rdf:RDF>
      <cc:Work
         rdf:about="">
        <dc:format>image/svg+xml</dc:format>
        <dc:type
           rdf:resource="http://purl.org/dc/dcmitype/StillImage" />
        <dc:title></dc:title>
      </cc:Work>
    </rdf:RDF>
  </metadata>
  <g
     inkscape:label="Layer 1"
     inkscape:groupmode="layer"
     id="layer1"
     transform="translate(-497.15824,820.97398)">
    <path
       style="fill:#060505"
       d="m 1242.4286,961.80593 c -1.65,-0.5257 -10.4826,-1.1575 -19.6281,-1.4039 -9.6217,-0.2593 -19.5236,-1.0966 -23.5,-1.9872 -3.7795,-0.8466 -9.8428,-1.9554 -13.4739,-2.4642 -3.6311,-0.5087 -7.6811,-1.3573 -9,-1.8857 -8.6671,-3.4724 -27.8814,-8.0771 -33.898,-8.1237 -1.925,-0.015 -5.8701,-1.1306 -8.767,-2.4792 -7.3704,-3.4314 -20.0412,-7.3127 -26.384,-8.082 -13.3249,-1.6161 -18.7827,-3.8259 -33.4377,-13.53864 -2.1512,-1.4257 -8.8613,-5.176 -14.9113,-8.334 -6.05,-3.158 -11.9,-6.5576 -13,-7.5547 -1.1,-0.9971 -5.375,-4.2847 -9.5,-7.3058 -4.125,-3.021 -8.625,-6.443 -10,-7.6043 -1.375,-1.1614 -5.875,-4.5953 -10,-7.6311 -4.125,-3.0357 -9.0883,-6.8023 -11.0296,-8.3702 -6.10511,-4.9306 -14.20281,-9.735 -21.97041,-13.0352 -4.125,-1.7526 -9.3889,-4.291 -11.6975,-5.6409 -4.2465,-2.483 -15.4617,-6.395 -18.4018,-6.4187 -2.7716,-0.022 -15.1785,-7.1436 -20.7729,-11.9232 -7.9315,-6.7761 -17.0269,-16.0521 -22.1278,-22.5669 -2.475,-3.161 -5.4,-6.6209 -6.5,-7.6886 -2.6072,-2.5306 -13.8184,-11.4764 -19.1977,-15.3184 -15.143,-10.8156 -20.8482,-16.0577 -29.0597,-26.7014 -5.0079,-6.4911 -7.2069,-10.2961 -15.208,-26.3144 -8.4439,-16.9049 -11.5016,-22.0188 -17.9376,-30 -3.1046,-3.85 -6.8158,-8.5845 -8.2472,-10.5212 -1.4314,-1.9366 -7.7163,-7.7866 -13.9666,-13 -15.8993,-13.2617 -27.7278,-25.727 -32.0625,-33.7887 -1.9785,-3.6795 -4.6797,-8.7151 -6.0026,-11.1901 -4.6134,-8.6308 -8.0837,-17.367 -9.9454,-25.0366 -1.0311,-4.2483 -2.5493,-9.3385 -3.3737,-11.3116 -0.8245,-1.9732 -1.499,-4.9663 -1.499,-6.6513 0,-2.8233 -4.3216,-18.6478 -6.9281,-25.3687 -1.0674,-2.7524 -5.4904,-9.0321 -11.3219,-16.0747 -1.5125,-1.8266 -2.75,-3.6375 -2.75,-4.0242 0,-0.3867 -2.6299,-3.7023 -5.8443,-7.368 -3.2144,-3.6657 -6.7792,-8.6899 -7.9219,-11.1649 -5.9597,-12.9086 -8.2338,-18.4482 -8.2338,-20.0573 0,-0.9793 -0.675,-3.1671 -1.5,-4.8617 -0.825,-1.6945 -2.175,-4.4675 -3,-6.162 -0.825,-1.6946 -1.5,-4.0727 -1.5,-5.2847 0,-1.212 -0.8535,-4.663 -1.8967,-7.669 -3.5842,-10.3276 -7.2483,-30.3538 -8.2271,-44.9653 -1.1708,-17.4781 -1.1374,-15.2965 -0.4221,-27.5 1.7832,-30.4245 1.7008,-35.1687 -0.8663,-49.84 -1.3626,-7.788 -3.2232,-19.11 -4.1346,-25.16 -0.9113,-6.05 -2.5309,-14.15 -3.599,-18 -1.068,-3.85 -2.569,-9.475 -3.3354,-12.5 -3.3505,-13.2238 -4.9708,-15.1637 -25.0188,-29.9527 -3.3,-2.4343 -9.6,-8.1162 -14,-12.6264 -7.9541,-8.1532 -20.5,-24.2833 -20.5,-26.3565 0,-0.5969 -4.189,-9.2931 -9.3089,-19.3248 -5.1199,-10.0318 -10.3684,-20.9396 -11.6635,-24.2396 -1.295,-3.3 -2.7651,-6.5371 -3.2667,-7.1936 -0.5017,-0.6565 -1.5193,-3.3565 -2.2614,-6 -3.3555,-11.954 -10.4657,-28.7687 -16.6208,-39.3064 -1.7669,-3.025 -4.4279,-7.75 -5.9133,-10.5 -6.025,-11.1548 -11.7046,-21.2205 -14.1063,-25 -1.398,-2.2 -3.9969,-7.15 -5.7755,-11 -5.9118,-12.797611 -9.3164,-19.950591 -11.8166,-24.826191 -1.3611,-2.65441 -3.2893,-8.05441 -4.2848,-12 -1.5702,-6.22361 -2.8541,-11.00101 -7.9747,-29.67381 -0.5279,-1.925 -0.9705,-6.222503 -0.9836,-9.550003 -0.013,-3.3275 -0.4975,-6.52362 -1.0764,-7.10249 -0.9467,-0.94668 -1.6893,-4.24252 -1.8786,-8.3377704 -0.038,-0.81964 -3.0515,-4.30192 -6.697,-7.73838 -5.5356,-5.21832 -7.0307,-7.36257 -9.0713,-13.0097396 -4.1671,-11.53227 -5.51,-18.35843 -5.8553,-29.76162 -0.1832,-6.05 -0.5832,-15.05 -0.889,-20 -0.5816,-9.41631 0.4538,-18.86233 4.6036,-41.999996 3.1544,-17.58743 3.0354,-29.77186 -0.4199,-43 -3.147,-12.04778 -3.5534,-15.11749 -4.3024,-32.5 -0.4439,-10.30032 -0.2069,-15.2776 0.9999,-21 4.4587,-21.14215 9.0306,-21.37268 9.9158,-0.5 0.6215,14.65314 7.7602,33.07606 16.6621,43 1.9734,2.2 5.1178,6.025 6.9875,8.5 1.8697,2.475 4.7714,5.95771 6.4483,7.73935 6.2173,6.60588 6.0473,3.88965 -0.8493,-13.57192 -2.969,-7.51709 -5.6318,-14.79243 -5.9174,-16.16743 -0.2856,-1.375 -1.272,-4.975 -2.1919,-8 -2.155,-7.08622 -3.1471,-31.40301 -1.6375,-40.13593 0.605,-3.50024 1.155,-18.2567 1.2222,-32.79215 0.067,-14.53544 0.3504,-27.02294 0.6294,-27.75 0.6433,-1.67651 5.7277,-1.7285 7.0343,-0.0719 0.5423,0.6875 1.2777,3.16238 1.6343,5.49974 1.6769,10.99278 8.4107,23.83616 16.9609,32.34964 11.7907,11.74006 20.4254,24.11914 25.1905,36.11428 1.8104,4.55749 3.8665,8.28634 4.5689,8.28634 1.2872,0 1.6311,-1.06288 3.8831,-12 1.4299,-6.94497 2.2203,-9.43435 6.0326,-19 2.7254,-6.83845 6.1365,-17.14497 11.4876,-34.70932 3.7166,-12.19909 8.0329,-22.06004 10.324,-23.58548 1.6371,-1.09001 2.2094,-1.03008 3.6183,0.37891 1.412,1.412 1.5696,2.94356 1.008,9.7948 -0.6337,7.72914 -1.1166,9.96827 -4.8494,22.48592 -0.8799,2.95066 -1.5998,6.40887 -1.5998,7.6849 0,1.27604 -0.4334,3.45994 -0.9631,4.85311 -0.5296,1.39317 -1.175,8.16752 -1.4342,15.05411 -0.2591,6.88659 -0.7015,12.89389 -0.9831,13.34954 -1.2731,2.05995 -1.785,42.30338 -0.6522,51.27706 4.1432,32.82178 16.686,61.56991 35.4422,81.233916 4.4991,4.71684 9.461,9.06304 11.0264,9.65821 3.5246,1.34005 17.5643,0.25 17.5632,-1.36361 -10e-4,-1.65617 -6.0474,-8.09335 -9.6366,-10.2597 -3.8611,-2.33045 -9.8136,-9.33865 -12.5561,-14.78288 -1.1274,-2.23822 -3.5456,-6.544486 -5.3737,-9.569486 -6.596,-10.91447 -14.9728,-37.15286 -15.3244,-48 -0.6429,-19.83726 -4.8254,-45.5651 -9.1038,-56 -1.0147,-2.475 -1.9084,-6.975 -1.9858,-10 -0.077,-3.025 -0.2259,-7.3 -0.3298,-9.5 -0.186,-3.93573 -0.1332,-4 3.2869,-4 2.8571,0 3.5987,0.44505 4.1654,2.5 4.0663,14.74558 9.6048,27.76772 14.1755,33.32989 4.9222,5.98999 20.4036,21.59112 25.6832,25.88188 17.7197,14.40095 22.926,18.91519 25.0646,21.73282 1.3395,1.76469 4.262,5.31158 6.4944,7.88197 5.5686,6.41154 16.1647,22.20567 23.4637,34.9741 3.9225,6.86183 6.6982,8.887106 6.3018,4.59813 -0.8854,-9.58222 -13.061,-45.70579 -17.163,-50.92055 -1.1888,-1.5114 -2.1615,-3.3684 -2.1615,-4.12669 0,-0.75829 -0.4322,-2.1601 -0.9605,-3.11514 -2.0002,-3.61614 -6.957,-16.00634 -9.0959,-22.73643 -2.2607,-7.11344 -5.8408,-14.976 -8.879,-19.5 -0.9235,-1.375 -3.6106,-7 -5.9714,-12.5 -2.3608,-5.5 -4.686,-10.76277 -5.167,-11.69505 -1.1815,-2.29004 -5.6884,-22.42925 -6.4922,-29.01084 -0.3556,-2.91176 -1.2859,-7.25829 -2.0674,-9.65896 -1.078,-3.31167 -1.1435,-4.69907 -0.2713,-5.75 3.0641,-3.69201 7.9047,0.11307 7.9047,6.21369 0,9.57521 8.8061,32.33864 19.2816,49.84249 6.7082,11.20878 12.6255,20.32041 14.2682,21.97042 0.5958,0.59854 1.9427,2.43825 2.9929,4.08825 1.9702,3.09523 10.7109,13.16614 22.9933,26.49263 7.4058,8.0354 17.2551,21.15294 21.464,28.58629 2.7501,4.85707 4.6956,5.63107 5.4571,2.17108 2.1039,-9.56015 3.5704,-18.86269 4.4535,-28.25 1.02,-10.84219 3.254,-23.33932 4.5459,-25.42961 0.9939,-1.60816 3.0331,-1.29181 4.8885,0.75835 1.1123,1.22904 1.6543,3.60653 1.653,7.25 0,5.12534 5.8077,31.76046 10.0162,45.92126 1.0625,3.575 2.3737,9.425 2.9138,13 0.5401,3.575 1.5648,9.425 2.277,13 2.0025,10.051176 1.4739,28.926666 -1.0765,38.438336 -1.1707,4.36608 -2.1285,10.22789 -2.1285,13.02623 0,9.79914 -2.0344,21.4069 -4.9546,28.2691 -6.0088,14.12061 -12.8944,24.3709096 -21.9689,32.7041496 -16.2372,14.9109204 -26.1501,26.3713634 -28.3975,32.8308034 -3.7823,10.87108 -4.0164,12.46358 -2.86,19.4541 1.4726,8.90148 4.6493,18.54331 8.2148,24.93299 2.8088,5.03367 7.8715,16.79042 12.421,28.844291 8.1748,21.6593 8.1381,21.5237 6.6052,24.3879 -1.411,2.6364 -4.4267,2.6993 -7.9838,0.1664 -3.3653,-2.3964 -10.7081,-5.0202 -14.1037,-5.0397 -1.3901,-0.01 -3.4431,0.6267 -4.5621,1.4105 -5.165,3.6177 -10.8871,15.5322 -12.0425,25.0749 -0.3329,2.75 -1.5682,7.025 -2.7449,9.5 -2.0902,4.3961 -2.2592,4.5069 -7.3203,4.8001 -4.8603,0.2816 -5.2409,0.4981 -6.1537,3.5 -0.5351,1.76 -1.2531,6.2667 -1.5955,10.0149 -0.3424,3.7483 -2.4313,13.6483 -4.6421,22 -2.2107,8.3518 -4.6184,17.4994 -5.3504,20.3282 -1.3574,5.2452 -8.2264,27.4198 -11.5722,37.3568 -2.1174,6.2891 -3.9888,15.9046 -3.9888,20.4956 0,2.2737 0.7722,3.6992 2.8266,5.2181 1.5734,1.1633 3.6271,4.2393 4.6321,6.9381 3.1412,8.4353 15.9634,26.0417 22.5413,30.9519 1.925,1.4369 7.1,4.2934 11.5,6.3478 4.4,2.0543 11.1212,5.8307 14.9361,8.3918 3.8149,2.5612 7.4271,4.6567 8.0271,4.6567 2.9431,0 11.7251,11.1962 15.2954,19.5 2.1001,4.8845 7.8141,21.0204 10.2693,29 0.6769,2.2 3.2335,7.0396 5.6813,10.7547 4.7045,7.14 9.8458,10.9934 16.2908,12.2098 5.7051,1.0767 8.8951,2.6296 9.5334,4.6407 0.3299,1.0396 1.8074,2.1528 3.2832,2.4738 4.9206,1.0701 8.2628,2.6828 7.8919,3.8079 -0.2017,0.6122 -2.5812,1.3659 -5.2877,1.6749 -2.7064,0.309 -7.1018,1.3309 -9.7674,2.2709 -6.8798,2.4261 -19.9066,2.8201 -26.1106,0.7897 -6.7444,-2.2073 -17.6495,-12.3856 -19.5991,-18.2929 -0.7727,-2.3415 -4.4065,-7.8992 -8.0751,-12.3505 -5.3316,-6.4693 -7.5428,-8.3807 -11.0193,-9.5253 -2.3921,-0.7876 -5.907,-2.2244 -7.8107,-3.1928 -1.9038,-0.9685 -4.4138,-1.7609 -5.5776,-1.7609 -4.7595,0 -14.8519,-5.1625 -18.75,-9.591 -2.1345,-2.4249 -4.2431,-4.409 -4.6858,-4.409 -0.4426,0 -0.6874,8.2125 -0.5438,18.25 l 0.2609,18.25 5.7288,11 c 6.0955,11.7041 8.0524,14.5 10.1487,14.5 0.7204,0 1.7915,0.9 2.3802,2 0.5887,1.1 1.8994,2 2.9127,2 1.0133,0 2.4026,0.675 3.0873,1.5 0.6847,0.825 1.6813,1.5 2.2147,1.5 0.5334,0 2.114,0.9 3.5124,2 1.3984,1.1 3.7753,2 5.282,2 1.5067,0 4.6229,0.6645 6.9249,1.4767 4.3941,1.5503 19.039,2.2761 21.0351,1.0424 1.868,-1.1545 3.9646,2.6229 3.9991,7.2052 0.028,3.657 -0.3545,4.4241 -2.8445,5.7117 -2.0461,1.0581 -4.0666,3.9238 -7,9.9281 -2.2681,4.6423 -4.1237,9.1491 -4.1237,10.0152 0,1.8669 -3.0686,3.9439 -8.2577,5.5893 -6.3197,2.004 -7.3749,6.5698 -3.1746,13.7371 1.4122,2.4097 3.8646,8.4167 5.4498,13.3488 3.7169,11.5644 6.6302,16.335 12.5427,20.5386 4.1165,2.9267 5.6035,3.4069 10.5507,3.4069 3.1674,0 6.9112,-0.4381 8.3195,-0.9735 1.4083,-0.5355 8.0751,-1.2126 14.8151,-1.5046 l 12.2545,-0.5311 3,-3.4004 c 6.8588,-7.7741 10.5392,-12.5689 13.4928,-17.5781 1.7189,-2.9153 4.2471,-6.7713 5.6183,-8.569 1.3712,-1.7978 4.0852,-7.2454 6.0311,-12.106 4.0664,-10.1571 6.1152,-12.4967 10.0273,-11.4504 4.2535,1.1376 5.301,5.96 5.3849,24.7904 0.07,15.7467 -0.03,16.605 -2.4041,20.6565 -3.9426,6.7274 -4.1761,10.2516 -1.1343,17.1172 1.7708,3.9969 2.6932,7.9371 2.8092,12 0.2372,8.3082 -1.9533,21.2028 -4.2382,24.9483 -3.0092,4.9329 -6.0881,16.3133 -6.0751,22.456 0.016,7.544 2.3795,16.0269 5.1966,18.6497 1.2603,1.1735 7.6915,3.841 14.2915,5.9279 6.6,2.0869 14.2565,4.8683 17.0143,6.1807 2.7579,1.3125 5.5601,2.3864 6.227,2.3864 0.6669,0 1.9395,1.1093 2.8278,2.4652 1.4821,2.2619 1.4842,2.9878 0.026,8.8031 -2.8721,11.4525 0.2541,26.2408 6.9051,32.6642 3.59,3.4671 12.7549,8.1189 19.5123,9.9039 3.4842,0.9203 7.146,3.5917 15.3956,11.2313 11.7727,10.9021 21.3934,16.9323 27.0143,16.9323 1.1978,0 2.6053,0.4075 3.1278,0.9055 0.5225,0.498 5,2.9445 9.95,5.4366 4.95,2.4921 11.5472,6.8096 14.6603,9.5945 6.4663,5.7845 8.162,6.3249 7.2585,2.3134 -2.8835,-12.8036 -5.363,-20.0578 -10.8521,-31.75 -3.9334,-8.3784 -6.2094,-13.7214 -8.5192,-20 -1.214,-3.3 -2.7032,-6.9 -3.3092,-8 -0.6061,-1.1 -1.5462,-9.2739 -2.0891,-18.1642 -0.9469,-15.5051 -0.8987,-16.3769 1.1818,-21.3833 1.193,-2.8706 2.169,-6.0888 2.169,-7.1516 0,-2.9875 1.8792,-5.8009 3.8747,-5.8009 2.9241,0 4.1253,4.4395 4.1253,15.2454 0,19.088 6.1889,33.5755 21.5016,50.333 5.1414,5.6264 10.01841,11.5105 10.83791,13.0757 0.8194,1.5653 3.1427,4.4209 5.1628,6.3459 4.1053,3.912 7.4977,9.8194 7.4977,13.0563 0,4.1107 3.2968,13.4819 6.2679,17.8165 3.5749,5.2156 10.9896,8.9275 23.2321,11.6303 10.714,2.3654 34.9047,1.5712 47.5,-1.5594 7.0896,-1.7622 11.238,-2.0901 25,-1.9762 l 16.5,0.1366 9.5,5.6211 c 5.225,3.0917 11.1888,7.1182 13.2529,8.948 2.0641,1.8297 4.1835,3.3268 4.7099,3.3268 0.5263,0 1.492,1.7857 2.1459,3.9683 1.5523,5.181 -0.035,7.4853 -4.5518,6.609 -5.5418,-1.0751 -18.9317,-2.0006 -26.4251,-1.8264 -10.3532,0.2407 -18.1282,4.0124 -27.8873,13.5286 -4.0727,3.9713 -8.0437,8.4357 -8.8246,9.9208 -3.6021,6.8509 -0.4777,13.6625 11.4915,25.0527 10.5372,10.0275 12.4823,11.2084 21.7998,13.2343 13.4526,2.925 15.6098,3.8967 18.0088,8.112 1.221,2.1454 2.4911,5.9257 2.8224,8.4007 1.2005,8.968 5.6445,16 10.1115,16 1.6427,0 4.0554,1.6215 7.1691,4.8182 3.6646,3.7623 5.2181,6.447 7.0887,12.25 3.5016,10.8628 5.4408,14.21 10.7909,18.6259 4.2485,3.5066 22.9302,13.3059 25.3669,13.3059 1.6842,0 0.9608,-2.3834 -3.612,-11.9013 -2.4843,-5.1708 -4.9255,-11.2458 -5.425,-13.5 -1.8274,-8.2469 -3.2886,-30.0742 -2.7409,-40.9412 0.7344,-14.5699 2.4501,-21.8463 8.2264,-34.8881 4.1992,-9.4811 5.5729,-11.5188 11.7977,-17.5 19.0198,-18.2755 30.2594,-30.3389 36.7923,-39.4891 3.9468,-5.5281 9.0475,-12.3526 11.335,-15.1657 2.2874,-2.813 5.1112,-6.9146 6.2751,-9.1146 4.9829,-9.4191 13.2446,-28.974 14.3748,-34.0244 1.2738,-5.6917 3.458,-7.302 4.3754,-3.2256 6.0506,26.886 6.0621,41.5933 0.059,75.25 -2.1832,12.2403 -3.1281,15.7393 -6.6733,24.7105 -1.6759,4.2408 -2.8855,8.1952 -2.688,8.7876 0.6432,1.9296 21.3791,-13.67 30.4692,-22.9218 5.9385,-6.0443 10.4456,-11.7943 13.654,-17.4195 4.6417,-8.1382 4.8224,-8.7629 5.8653,-20.2768 1.2201,-13.4699 1.3964,-14.38 2.7861,-14.38 1.9635,0 3.9599,10.7233 4.8112,25.8422 1.077,19.1263 0.6068,21.9442 -7.1295,42.7332 -1.3898,3.7346 -12.3047,20.1358 -14.094,21.1781 -2.169,1.2636 -12.0861,13.4911 -14.7987,18.2465 -5.5216,9.6797 -8.8694,26 -5.3335,26 0.768,0 4.7055,-1.5659 8.75,-3.4799 4.0446,-1.9139 11.6288,-4.5785 16.8538,-5.9212 5.225,-1.3427 14,-3.6149 19.5,-5.0494 5.5,-1.4344 14.9853,-4.8449 21.0784,-7.5788 6.0931,-2.7339 11.6105,-4.9707 12.2609,-4.9707 2.0666,0 10.4385,-4.1833 17.1614,-8.5753 6.6118,-4.3194 36.1447,-34.1471 38.9093,-39.2978 1.9753,-3.68 8.853,-12.9583 12.6956,-17.1269 1.7744,-1.925 5.1297,-7.1 7.4561,-11.5 2.3264,-4.4 4.9706,-9.125 5.876,-10.5 4.7244,-7.1748 13.0695,-28.8519 21.0448,-54.6651 1.3922,-4.5061 1.9764,-8.2455 1.5743,-10.0763 -1.2963,-5.9019 3.0867,-10.8029 6.2512,-6.99 1.8199,2.1929 3.4795,14.6442 2.7458,20.6015 -0.3814,3.0964 -1.0842,9.4549 -1.5619,14.1299 -0.9146,8.9508 -7.7645,31.2059 -12.1478,39.4683 -1.2893,2.4302 -4.021,7.5616 -6.0704,11.4031 -3.1869,5.9735 -3.9245,8.6238 -5.0949,18.3066 -1.8125,14.9943 -1.2421,27.9021 1.4602,33.0491 2.8035,5.3395 9.156,3.4742 20.1644,-5.9208 17.3347,-14.7942 19.8388,-17.0838 23.2263,-21.2368 7.7481,-9.499 9.0122,-14.0014 15.2415,-54.2832 1.3748,-8.8902 1.4417,-11.3087 0.3929,-14.2091 -1.0846,-2.9994 -1.0277,-3.8557 0.401,-6.0362 2.1999,-3.3574 5.1642,-3.2645 6.6696,0.209 2.3768,5.4842 8.9771,15.25 10.3069,15.25 1.2573,0 7.4584,-7.9564 7.4584,-9.5696 0,-0.3901 1.291,-2.8074 2.8689,-5.3718 1.5779,-2.5644 4.4836,-9.3642 6.457,-15.1106 8.0631,-23.4785 10.4619,-30.7312 12.0552,-36.448 1.677,-6.0175 2.1552,-7.8209 5.0548,-19.0656 1.769,-6.8604 2.0315,-15.0749 0.6017,-18.8355 -0.728,-1.9149 -0.5889,-2.9047 0.5714,-4.0651 2.7331,-2.7331 5.1559,-1.8327 7.3091,2.7162 1.1065,2.3375 3.5902,6.95 5.5195,10.25 3.3579,5.7438 4.6569,8.3801 8.2674,16.7784 0.8934,2.0782 2.1128,3.6228 2.7097,3.4325 1.768,-0.5635 4.3038,-6.4583 8.2643,-19.2109 l 3.7268,-12 -0.1678,-18.5 c -0.092,-10.175 -0.3897,-24.5518 -0.6607,-31.9484 -0.3249,-8.8658 -0.1247,-13.892 0.5874,-14.75 1.6696,-2.0118 5.3829,-1.5484 9.3915,1.172 5.8391,3.9625 9.7836,4.2549 13.672,1.0133 4.3768,-3.6488 6.6886,-8.225 6.0726,-12.0209 -0.5248,-3.2337 0.5773,-4.7249 4.3438,-5.8776 2.724,-0.8336 5.3554,1.6641 5.3554,5.0831 0,2.0631 5.4798,15.2487 8.8391,21.269 1.2206,2.1874 2.8414,2.3516 3.4586,0.3504 0.3039,-0.985 1.686,-4.9409 3.0715,-8.7909 1.3854,-3.85 2.9866,-9.925 3.5582,-13.5 0.5715,-3.575 2.3649,-10.775 3.9852,-16 1.6203,-5.225 3.4105,-12.0763 3.9781,-15.2251 0.5677,-3.1488 1.6659,-6.9738 2.4405,-8.5 5.4529,-10.7441 14.0115,-43.6802 14.1036,-54.2749 0.064,-7.3882 0.1038,-7.5 2.6581,-7.5 1.9485,0 4.4592,1.988 10.1033,8 8.2928,8.8333 15.1729,20.6902 17.1365,29.5326 1.9573,8.8142 3.0315,7.8789 6.6238,-5.7676 0.6131,-2.3292 1.39,-11.5565 1.7264,-20.5049 0.638,-16.972 0.704,-16.3893 -4.8404,-42.7601 -1.2347,-5.8728 -10.0772,-23.8138 -14.7131,-29.8523 -3.1847,-4.1482 -4.8369,-12.502 -5.0727,-25.6477 -0.079,-4.4 -0.6439,-9.4058 -1.2555,-11.124 -2.4171,-6.7913 2.0415,-8.5017 8.1485,-3.126 12.4875,10.992 20.364,15.2218 27.1415,14.5752 l 3.4088,-0.3252 -0.044,-18 c -0.037,-15.1292 -0.4916,-20.5518 -2.8522,-34 -3.0914,-17.6123 -3.0653,-20.721 0.3276,-39 1.123,-6.05 2.0478,-14.8824 2.0551,-19.6276 0.01,-6.6401 0.3782,-8.9303 1.5971,-9.942 2.4928,-2.0688 4.7496,0.096 6.2091,5.9571 2.1387,8.5878 8.817,19.9753 16.0471,27.3625 3.6335,3.7125 7.1483,6.75 7.8106,6.75 1.5832,0 5.3444,-4.8242 5.3677,-6.8849 0.01,-0.8883 1.6212,-5.4401 3.5804,-10.1151 12.918,-30.8254 16.7249,-44.4151 19.4496,-69.4304 1.3107,-12.0335 0.4339,-18.4358 -2.6874,-19.6225 -2.0621,-0.784 -2.3654,-1.5653 -2.3965,-6.1723 -0.02,-2.9012 -0.6682,-7.7498 -1.4413,-10.7748 -3.7566,-14.6983 -5.424,-20.71 -6.3791,-23 -0.5734,-1.375 -1.9963,-6.55 -3.1618,-11.5 -1.1656,-4.95 -3.1867,-11.475 -4.4913,-14.5 -1.3047,-3.025 -3.9803,-10.225 -5.9459,-16.000001 -1.9655,-5.775 -4.5122,-13.2 -5.6592,-16.5 -1.1471,-3.3 -2.6886,-8.475 -3.4257,-11.5 -0.737,-3.025 -2.4363,-8.425 -3.7762,-12 -1.3399,-3.575 -3.8762,-10.775 -5.6363,-16 -1.7601,-5.225 -3.5295,-9.84114 -3.932,-10.25809 -0.4025,-0.416943 -2.2518,1.27056 -4.1095,3.75 -3.6463,4.86647 -4.0825,5.07275 -7.1993,3.40467 -1.8651,-0.99814 -2.0001,-1.70608 -1.4147,-7.419623 0.5355,-5.22629 0.15,-8.09879 -2.2336,-16.64658 -2.4456,-8.7697404 -2.986,-12.9741604 -3.5768,-27.83038 -0.3827,-9.625 -1.0833,-22.68368 -1.5568,-29.0193 -0.9782,-13.08859 0.1616,-25.12791 4.2112,-44.4807 4.1001,-19.594716 5.078,-29.857426 4.2569,-44.673446 -0.4062,-7.3296 -1.1706,-14.45155 -1.6987,-15.82655 l -0.96,-2.5 -3.3871,4 c -1.863,2.2 -4.5571,7.15 -5.9871,11 -1.43,3.85 -3.8804,9.08235 -5.4454,11.62745 -1.565,2.5451 -3.6036,7.0451 -4.5304,10 -2.3189,7.39389 -9.4176,21.347486 -12.6779,24.920556 -4.8251,5.28792 -8.0194,3.56883 -11.2378,-6.04801 -1.0123,-3.024996 -2.901,-7.524996 -4.1971,-9.999996 -2.2557,-4.30762 -12.4603,-34.20828 -15.7843,-46.25 -0.8729,-3.1625 -2.293,-8.3375 -3.1557,-11.5 -0.8627,-3.1625 -2.8424,-8.675 -4.3993,-12.25 -1.5569,-3.575 -5.0136,-13.19246 -7.6815,-21.37212 -2.6679,-8.17967 -5.3878,-16.27967 -6.0443,-18 -0.6564,-1.72034 -1.2284,-4.70288 -1.2709,-6.62788 -0.043,-1.925 -1.2123,-7.325 -2.5993,-12 -1.3869,-4.675 -2.9298,-11.2 -3.4286,-14.5 -1.6312,-10.79189 -2.8103,-15.86766 -5.8076,-25 -1.6246,-4.95 -3.2906,-10.55657 -3.7023,-12.45903 -0.8955,-4.13858 -8.8551,-20.29913 -12.1081,-24.58316 -1.2705,-1.67321 -3.4915,-5.72321 -4.9356,-9 -1.4442,-3.2768 -3.222,-7.30781 -3.9507,-8.95781 -2.5061,-5.67385 -4.7049,-25.39308 -4.5872,-41.138 0.062,-8.33502 -0.3385,-16.34284 -0.8907,-17.79516 -1.9261,-5.06604 5.9198,-13.74762 9.0336,-9.99574 0.8443,1.01737 0.8292,3.16321 -0.06,8.43265 -1.9593,11.61603 0.2742,20.82497 9.752,40.20726 4.8284,9.87416 6.5792,11.56864 7.7897,7.53899 0.3718,-1.2375 1.7052,-4.95 2.9631,-8.25 1.2579,-3.3 2.5396,-7.125 2.8481,-8.5 0.3086,-1.375 2.5048,-5.425 4.8805,-9 5.1063,-7.68419 12.9295,-26.02422 14.7163,-34.5 0.6958,-3.3 1.6388,-7.125 2.0957,-8.5 2.5366,-7.63399 3.1613,-18.43703 2.6188,-45.28737 -0.4597,-22.75036 -0.8834,-28.88231 -2.2597,-32.70994 -2.1578,-6.00053 -1.3455,-10.00269 2.0302,-10.00269 5.5044,0 16.9225,18.0941 21.1397,33.5 5.486,20.04055 6.3217,25.36349 8.5017,54.1497 2.2718,29.99738 2.1806,37.72714 -0.5821,49.3503 -6.6113,27.8148 -8.2782,54.50715 -4.3752,70.05961 4.0627,16.18851 5.2556,16.172 7.3248,-0.10136 0.6989,-5.49695 3.0876,-12.88987 6.61,-20.45825 6.3685,-13.68331 9.6146,-22.67874 11.3669,-31.5 0.9287,-4.675 2.3304,-11.04936 3.115,-14.16524 2.013,-7.99505 3.6298,-23.44 2.8749,-27.46374 -0.35,-1.86598 -1.4855,-5.05796 -2.5231,-7.0933 -3.137,-6.15298 -2.0571,-10.27772 2.6909,-10.27772 4.0559,0 5.1717,3.17378 8.9647,25.5 4.9587,29.18664 5.3955,38.37124 2.9489,62 -2.7704,26.75534 -1.3319,45.23911 4.2669,54.82551 2.6093,4.46766 3.8536,4.27382 5.131,-0.79932 2.2298,-8.85519 14.9769,-26.71852 26.1913,-36.70335 14.7993,-13.17669 25.3867,-31.92155 22.6563,-40.1128 -1.0536,-3.16072 0.9222,-8.02067 3.4594,-8.50929 0.9245,-0.17805 2.5969,0.59221 3.7163,1.71167 1.9642,1.96416 2.0146,2.82366 1.4397,24.56148 -0.4951,18.72188 -0.364,22.51879 0.7761,22.48281 4.5025,-0.1421 26.016,-24.75565 32.34,-37.00006 7.4981,-14.51769 8.2605,-17.70519 11.018,-46.06837 2.0443,-21.0281 1.8235,-32.11888 -1.0574,-53.10899 -1.3377,-9.74639 -2.3689,-19.19639 -2.2916,-21 0.147,-3.4282 -1.3119,-12.79139 -2.9261,-18.77929 -0.5189,-1.925 -3.3926,-8.675 -6.3859,-15 -2.9933,-6.325 -6.0661,-13.075 -6.8285,-15 -0.7624,-1.925 -2.134,-4.625 -3.0481,-6 -0.914,-1.375 -2.5139,-3.80457 -3.5552,-5.39903 -1.0414,-1.59447 -2.6666,-4.06947 -3.6115,-5.5 -0.945,-1.43054 -2.3507,-3.98234 -3.1237,-5.67068 -0.773,-1.68834 -2.5873,-4.9419 -4.0318,-7.23013 -1.4445,-2.28823 -2.6551,-4.73186 -2.6901,-5.43029 -0.035,-0.69843 -3.4044,-5.54487 -7.4874,-10.76987 -4.0831,-5.225 -9.2555,-13.325 -11.4943,-18 -2.2388,-4.675 -4.5418,-9.45888 -5.1178,-10.63084 -0.576,-1.17196 -0.7364,-3.11011 -0.3565,-4.30698 0.5496,-1.7316 1.3371,-2.11344 3.8552,-1.86916 2.7891,0.27056 3.4985,1.01882 5.9796,6.30698 1.5483,3.3 3.769,7.95147 4.9349,10.33659 1.3176,2.69548 5.9288,7.82496 12.1849,13.55449 5.5358,5.06984 11.4263,10.54338 13.09,12.16341 11.4134,11.11387 36.4977,34.67477 38.9731,36.60628 4.0694,3.17509 7.318,6.92669 8.0872,9.33923 0.3508,1.1 2.5486,4.925 4.8842,8.5 11.3852,17.42684 13.8188,21.69302 21.3919,37.5 4.4796,9.35 8.1433,17.45545 8.1417,18.01212 0,0.55667 1.1382,4.60667 2.533,9 1.3948,4.39333 3.1798,12.48788 3.9667,17.98788 0.7869,5.5 2.2949,13.15 3.3511,17 1.0562,3.85 2.2333,8.8 2.6156,11 0.7761,4.46491 5.4148,13.15112 9.554,17.89006 4.9424,5.65852 10.4113,18.06082 15.4821,35.10994 1.4723,4.95 3.6016,11.7 4.732,15 1.6626,4.85389 2.1152,9.05259 2.3692,21.98066 0.5595,28.4654 2.4726,38.11362 11.8021,59.51934 9.6233,22.07955 10.3526,27.6489 7.1871,54.87947 l -1.9041,16.37947 2.271,1.71302 c 2.1795,1.64397 2.2279,1.99147 1.1999,8.62053 -0.5891,3.79913 -1.3516,11.40751 -1.6945,16.90751 -1.2493,20.04323 -8.1941,48.039566 -13.3952,53.999996 -0.9598,1.1 -3.2283,4.475 -5.041,7.5 -1.8126,3.025 -5.0808,7.64052 -7.2626,10.25672 -6.9318,8.31192 -22.5159,32.44968 -24.6731,38.21538 -2.4593,6.57302 -4.7228,16.6833096 -5.6033,25.0278996 -0.9407,8.9148604 -4.3549,28.0286334 -6.4306,36.0000034 -1.0026,3.85 -2.3703,9.7 -3.0394,13 -1.0016,4.93967 -5.9699,21.17408 -9.9462,32.5 -5.4764,15.598641 -15.006,31.300201 -23.1508,38.144501 -9.0481,7.6034 -18.4656,19.4666 -21.2381,26.7536 -3.8546,10.1307 -4.6335,15.239 -5.0473,33.1019 -0.3512,15.1591 -0.601,17.0282 -3.0738,23 -5.091,12.2945 -7.6881,21.5326 -10.1208,36 -2.8981,17.2352 -3.278,37.4549 -0.9114,48.5 2.4964,11.6504 2.7332,19.7893 1.4111,48.5 -0.6965,15.125 -1.3823,41.225 -1.524,58 -0.1435,16.9807 -0.7437,32.9215 -1.3542,35.9629 -0.6031,3.0046 -3.6136,10.6546 -6.6901,17 -10.0983,20.8284 -11.0268,23.2757 -11.9641,31.5371 -0.3745,3.3 -2.2152,10.275 -4.0905,15.5 -1.8754,5.225 -4.7207,14 -6.323,19.5 -1.6023,5.5 -4.0889,12.925 -5.5258,16.5 -5.6376,14.0269 -13.1955,34.6531 -13.7501,37.5258 -1.5285,7.9165 -4.9215,14.2364 -11.7974,21.9742 -3.9099,4.4 -11.7426,15.0051 -17.406,23.5669 -5.6635,8.5618 -11.0157,16.2854 -11.8938,17.1635 -6.3267,6.3267 -21.669,33.0769 -27.6692,48.2428 -1.735,4.3853 -5.3269,12.4853 -7.982,18 -2.655,5.5147 -5.1616,11.3768 -5.5702,13.0268 -0.4085,1.65 -3.8699,9.525 -7.6918,17.5 -3.822,7.975 -9.5311,19.9 -12.6869,26.5 -3.1558,6.6 -6.3104,13.8 -7.0101,16 -0.6998,2.2 -1.6647,5.0337 -2.1444,6.2971 -0.4797,1.2633 -0.8721,3.5672 -0.8721,5.1197 0,3.5632 -6.8621,16.7563 -12.5811,24.1886 -2.3988,3.1175 -6.5119,7.0516 -9.1402,8.7425 -2.6283,1.691 -6.1287,4.0095 -7.7787,5.1524 -1.65,1.1428 -9.075,5.7025 -16.5,10.1325 -16.1408,9.6303 -19.2632,11.9811 -32.9589,24.8142 -13.1272,12.3005 -22.8785,20.3104 -28.901,23.7397 -2.5521,1.4532 -7.8279,4.5932 -11.724,6.9777 -3.8962,2.3846 -7.3947,4.3356 -7.7745,4.3356 -0.3799,0 -3.5299,1.7931 -7,3.9848 -3.4702,2.1916 -10.6466,6.0393 -15.9477,8.5504 -5.301,2.5111 -9.9369,5.0489 -10.3019,5.6395 -0.365,0.5907 -3.4195,2.3235 -6.7878,3.8507 -3.9523,1.7921 -7.7771,4.5713 -10.7852,7.8368 -2.5636,2.7831 -5.9341,5.37374 -7.49,5.75714 -3.2956,0.812 -5.6197,2.2248 -13.837,8.4112 -3.3099,2.4918 -7.5871,5.1306 -9.5049,5.8641 -1.9179,0.7335 -7.3121,3.142 -11.9871,5.3522 -12.0342,5.6895 -26.4773,10.7532 -30.6707,10.7532 -5.705,0 -33.3492,-3.9177 -38.8426,-5.5047 -7.2849,-2.1045 -14.1176,-2.9661 -57.3713,-7.234 -8.3435,-0.8232 -25.5139,2.3954 -37.0866,6.9521 -6.7904,2.6736 -34.5822,8.908 -38.7861,8.7006 -0.9585,-0.047 -3.0927,-0.516 -4.7427,-1.0417 z M 1072.3209,842.68359 c -5.2155,-5.6499 -10.034,-12.1103 -12.1876,-16.3404 -1.866,-3.6652 -2.0221,-5.2358 -1.5013,-15.1077 0.5454,-10.3383 0.4492,-11.1493 -1.5611,-13.1596 -2.2023,-2.2023 -8.3394,-2.9388 -10.9071,-1.3088 -0.8915,0.5658 -1.396,5.1722 -1.7093,15.6044 -0.3903,12.9982 -0.2185,15.2444 1.4104,18.4373 3.5292,6.9177 16.9916,14.2526 27.5099,14.9886 1.6809,0.1176 1.5373,-0.3067 -1.0539,-3.1138 z m 578.8906,-153.511 c 11.4776,-11.4128 15.6534,-17.93 18.401,-28.7189 2.5721,-10.0995 3.0706,-23.465 1.0263,-27.5201 -1.6175,-3.2087 -4.8044,-3.6584 -7.1963,-1.0153 -1.4413,1.5925 -1.8167,3.3477 -1.6208,7.5771 0.4476,9.6627 -4.6228,24.1548 -13.5036,38.5956 -4.1747,6.7884 -9.317,14.8176 -11.4273,17.8426 -3.7797,5.4181 -7.9622,12.6454 -7.9622,13.7586 0,0.7343 12.2904,-10.5835 22.2829,-20.5196 z m -798.28291,2.5044 c 0,-0.6911 -0.4772,-2.8286 -1.0604,-4.75 -1.0731,-3.5354 -1.3087,-4.9607 -2.5081,-15.169 -0.5038,-4.288 -1.3105,-6.2915 -3.2992,-8.1945 -2.4966,-2.389 -17.4362,-10.6299 -19.2704,-10.6299 -1.6595,0 -0.8399,4.5707 1.6165,9.0155 1.3631,2.4665 4.2883,8.136 6.5006,12.5989 2.9305,5.912 5.0716,8.8417 7.8882,10.7936 2.1263,1.4735 4.9045,3.7845 6.1737,5.1356 2.5386,2.7022 3.9591,3.1327 3.9591,1.1998 z m 518.00001,50.2566 c -0.7663,-1.4319 -0.7544,-2.5903 0.042,-4.0781 0.6117,-1.143 0.8948,-2.6446 0.6292,-3.3369 -0.2657,-0.6922 -0.051,-6.7437 0.478,-13.4477 0.8505,-10.7876 0.7125,-13.5945 -1.2001,-24.4132 -1.1886,-6.7232 -2.5773,-14.636 -3.0861,-17.5839 -1.0622,-6.1545 -3.3406,-11.0613 -6.0117,-12.9469 -2.0922,-1.4769 -2.4745,-6.1699 -0.6511,-7.9933 1.5651,-1.5651 10.6104,-1.5195 13.75,0.069 1.5329,0.7758 4.0511,4.4197 6.7277,9.7353 5.3495,10.6239 7.8859,24.9702 6.3408,35.8647 -0.5236,3.6923 -0.9031,9.6197 -0.8433,13.172 0.089,5.2911 -0.4085,7.453 -2.7521,11.9587 -7.4094,14.2444 -10.9316,17.6556 -13.4231,13 z m -36.0249,-54.25 c -0.2716,-13.6278 -0.5794,-14.777 -5.249,-19.5953 -2.4811,-2.5601 -5.2264,-6.0793 -6.1007,-7.8205 -0.8743,-1.7412 -4.3354,-5.554 -7.6913,-8.4729 -5.2454,-4.5622 -17.2529,-19.9828 -20.9739,-26.9356 -1.5971,-2.9842 -2.9104,-7.4295 -3.9665,-13.4257 -0.4844,-2.75 -1.1785,-6.2106 -1.5424,-7.6903 -0.5152,-2.0949 -0.092,-3.2595 1.9107,-5.2626 2.3377,-2.3377 3.0671,-2.5141 7.999,-1.9345 5.437,0.639 13.9852,-0.7022 18.4732,-2.8984 2.0212,-0.9891 2.5882,-0.8118 4.2278,1.3217 1.0414,1.3553 1.9035,3.9264 1.9157,5.7137 0.021,3.0574 1.7886,14.9835 4.0254,27.1591 0.5465,2.9748 3.1869,10.3998 5.8674,16.5 6.5903,14.9975 8.5832,23.6281 7.7019,33.3542 -0.3779,4.1707 -1.1272,8.4052 -1.665,9.41 -1.101,2.0574 -4.894,2.5011 -4.9323,0.5771 z m -42.3297,-27.0921 c -1.585,-2.7045 -3.557,-4.6699 -5.0657,-5.0485 -1.3587,-0.3411 -4.4991,-2.3759 -6.9785,-4.5218 -2.4795,-2.146 -6.2166,-4.4484 -8.3047,-5.1165 -2.0881,-0.6682 -5.3715,-2.0523 -7.2965,-3.0759 -1.925,-1.0236 -5.6831,-2.7724 -8.3514,-3.8861 -7.9852,-3.333 -19.1004,-12.6915 -23.0223,-19.3838 -4.1021,-6.9997 -5.73,-20.9553 -3.6821,-31.566 0.9882,-5.1206 3.4562,-7.4293 7.0558,-6.6005 1.375,0.3166 6.0562,1.2449 10.4028,2.0628 4.3465,0.8179 8.4426,1.9351 9.1024,2.4827 0.6841,0.5678 1.489,5.1849 1.8733,10.7456 0.3705,5.3626 1.4196,11.7751 2.3312,14.2501 2.8478,7.7314 11.1312,19.6922 17.1313,24.7369 7.9479,6.6823 14.4807,13.9407 17.611,19.5674 4.5302,8.1428 1.8378,13.2786 -2.8066,5.3536 z m 264.1389,-56.4079 c -0.8391,-0.9625 -1.7744,-4.45 -2.0785,-7.75 -1.2795,-13.8837 -13.0922,-39.0335 -23.4046,-49.8295 -2.8594,-2.9934 -7.1344,-6.4016 -9.5,-7.5738 -5.8289,-2.8883 -10.122,-6.8184 -9.4269,-8.6298 0.8322,-2.1686 9.4729,-1.8702 15.9429,0.5506 9.1423,3.4206 15.9474,7.6429 21.6486,13.4322 3.0063,3.0527 6.007,5.5503 6.6685,5.5503 3.5785,0 12.1872,-24.1669 13.104,-36.7864 0.4216,-5.803 0.917,-7.494 2.4333,-8.3054 3.3942,-1.8165 5.4989,-0.1329 7.9686,6.3744 2.0739,5.4642 2.3585,7.9135 2.3492,20.2174 -0.01,7.7 -0.5579,16.475 -1.2269,19.5 -5.6846,25.7047 -6.1199,27.0634 -11.015,34.3738 -1.7949,2.6806 -3.5507,6.6699 -3.9017,8.8651 -0.3864,2.4163 -1.7644,5.1433 -3.492,6.9107 -1.5696,1.6056 -2.8538,3.3538 -2.8538,3.8849 0,1.5116 -1.5419,1.1354 -3.2157,-0.7845 z m -536.3373,-32.1144 c -6.9409,-5.037 -19.619,-9.0739 -28.61621,-9.1117 -3.1181,-0.013 -8.5181,-0.6982 -12,-1.5223 -3.482,-0.8242 -8.5808,-2.0048 -11.3308,-2.6236 -13.9981,-3.1499 -39.2003,-20.5164 -44.9619,-30.9827 -1.671,-3.0353 -3.9818,-6.841 -5.1352,-8.457 -2.62,-3.6711 -4.489,-9.0503 -3.7834,-10.8892 0.8384,-2.1848 3.241,-2.6397 4.6231,-0.8754 2.8295,3.6123 7.8982,8.254 10.4937,9.6098 1.52,0.794 4.1137,2.1773 5.7637,3.0739 1.65,0.8967 4.7306,1.6331 6.8457,1.6364 2.1151,0 5.0401,0.6463 6.5,1.4287 4.0589,2.1752 12.6427,4.5775 16.3563,4.5775 1.8294,0 5.7949,0.9117 8.8121,2.0261 3.0172,1.1143 6.4282,1.7983 7.58,1.52 1.1517,-0.2782 4.9767,0.3043 8.5,1.2947 5.6153,1.5784 9.177,3.5226 19.90591,10.8664 6.7036,4.5885 12.6175,10.2193 15.5535,14.809 1.784,2.7888 3.9642,5.6686 4.845,6.3996 2.0487,1.7002 2.0655,6.4773 0.03,8.5128 -2.3343,2.3343 -5.5588,1.9166 -9.9815,-1.293 z m 332.053,-79.7952 c -8.1037,-0.9516 -17.0328,-1.2233 -27.5,-0.8368 -10.541,0.3892 -21.2588,0.057 -33.5,-1.0369 -9.9,-0.8851 -19.8,-1.7536 -22,-1.9299 -2.2,-0.1763 -10.3087,-0.8697 -18.0194,-1.5408 -7.7107,-0.6711 -17.8357,-0.9607 -22.5,-0.6436 -4.6643,0.3171 -12.7556,0.8648 -17.9806,1.2171 -6.5927,0.4445 -12.7991,0.1493 -20.2803,-0.9645 -5.9291,-0.8828 -12.6437,-1.605 -14.9212,-1.605 -2.2776,0 -4.8515,-0.6066 -5.7198,-1.3479 -0.8683,-0.7414 -3.8287,-1.9371 -6.5787,-2.6572 -2.75,-0.7201 -6.6696,-2.1385 -8.7102,-3.1521 -2.0406,-1.0135 -4.3292,-1.8428 -5.0859,-1.8428 -0.7566,0 -3.4745,-1.6352 -6.0398,-3.6338 -3.2143,-2.5042 -4.6641,-4.3693 -4.6641,-6 0,-3.4392 3.8476,-3.1032 11.3489,0.9911 7.95,4.3391 26.4668,10.1074 39.0628,12.1686 8.49,1.3894 12.2196,1.4631 26,0.5144 25.8374,-1.7789 38.0916,-1.3116 75.0883,2.8635 9.1492,1.0324 61.1649,2.4201 81.5,2.1743 10.1515,-0.1228 20.6856,-2.6222 22.0869,-5.2405 1.2316,-2.3012 7.1242,-2.493 8.9514,-0.2914 1.9169,2.3096 -1.6787,6.5918 -7.1283,8.4895 -2.4255,0.8446 -5.535,2.0635 -6.91,2.7087 -3.0361,1.4246 -15.4506,3.3027 -20.6916,3.1303 -2.0946,-0.069 -9.2084,-0.7593 -15.8084,-1.5343 z m 280.25,-16.4205 c -1.2286,-0.7156 -1.75,-2.2749 -1.75,-5.2337 0,-2.3179 -0.919,-6.6831 -2.0423,-9.7003 -1.1232,-3.0173 -2.9675,-7.9609 -4.0984,-10.9859 -1.1309,-3.025 -2.9168,-8.2 -3.9686,-11.5 -1.0518,-3.3 -2.296,-6.9 -2.7649,-8 -0.4689,-1.1 -1.6456,-4.475 -2.615,-7.5 -0.9693,-3.025 -2.6058,-6.9882 -3.6366,-8.8072 -1.0308,-1.8189 -1.8742,-4.0158 -1.8742,-4.8819 0,-1.7083 -2.2881,-5.8223 -7.8535,-14.1205 -3.9005,-5.8158 -3.6387,-8.3673 0.9274,-9.039 2.951,-0.4342 4.1837,-1.2986 11.6243,-8.1514 3.2844,-3.025 7.9412,-8.425 10.3484,-12 2.4072,-3.575 6.7565,-9.4748 9.6651,-13.1106 2.9086,-3.6358 5.2883,-6.9496 5.2883,-7.364 0,-0.9098 8.4992,-14.8019 11.6734,-19.0805 3.4298,-4.6229 6.3114,-11.7871 5.6927,-14.153 -0.6714,-2.5675 2.8847,-6.5166 5.1021,-5.6657 0.8324,0.3194 1.9442,2.2217 2.4705,4.2273 2.931,11.1682 4.2879,18.7893 5.5238,31.024 0.7569,7.4924 1.8882,14.9571 2.5141,16.5882 0.7296,1.9016 1.0488,9.0775 0.8895,20 -0.1366,9.3689 0.091,18.0414 0.5063,19.2724 0.9556,2.8336 -2.0729,8.2619 -4.6094,8.2619 -2.1737,0 -3.3743,-2.6107 -4.6878,-10.1932 -1.5545,-8.9731 -4.0349,-16.5774 -5.6037,-17.1794 -1.5731,-0.6036 -11.4564,8.0406 -16.5585,14.4824 l -3.0773,3.8855 1.7217,12.7524 c 1.9852,14.7038 1.4863,36.8251 -1.0501,46.5631 -0.829,3.1827 -1.5073,8.5998 -1.5073,12.038 0,7.898 -1.8471,10.1355 -6.25,7.5711 z m -204.75,-21.694 c -2.4382,-0.2673 -8.8771,-1.6634 -21.9418,-4.7573 -3.543,-0.839 -12.093,-3.976 -19,-6.9711 -11.1809,-4.8483 -27.0132,-10.4975 -29.4202,-10.4975 -0.4875,0 -4.4461,-1.6073 -8.7969,-3.5717 -4.3508,-1.9645 -8.4575,-3.3753 -9.1259,-3.1352 -0.6683,0.2402 -2.0003,0.033 -2.9599,-0.4606 -0.9596,-0.4934 -6.0104,-0.9088 -11.2241,-0.9231 -7.5984,-0.021 -10.4272,0.4015 -14.2553,2.1278 -4.1647,1.878 -6.4749,2.1411 -18.052,2.0557 -12.3002,-0.091 -14.0713,-0.3549 -24.0951,-3.5954 -5.9504,-1.9236 -11.5772,-3.4975 -12.504,-3.4975 -0.9268,0 -4.484,-1.183 -7.9049,-2.629 -14.7171,-6.2205 -44.0083,-6.9509 -61.2568,-1.5275 -3.2797,1.0312 -8.6631,2.4312 -11.9631,3.1111 -3.3,0.6799 -7.125,1.7139 -8.5,2.2978 -2.561,1.0875 -4.2948,1.4293 -21.372,4.2132 -5.4296,0.885 -11.0546,2.2073 -12.5,2.9383 -1.4454,0.731 -5.529,1.6465 -9.0746,2.0345 -3.8915,0.4258 -7.5626,1.5 -9.2622,2.7103 -1.9791,1.4092 -3.6579,1.8199 -5.6506,1.3822 -2.641,-0.5801 -16.2357,2.4034 -20.0407,4.3981 -0.88,0.4613 -3.6249,1.1731 -6.0999,1.5817 -2.475,0.4086 -7.65,1.7598 -11.5,3.0025 -3.85,1.2428 -8.4314,2.5646 -10.1809,2.9375 -1.7495,0.3728 -3.7171,1.3239 -4.3725,2.1136 -1.9534,2.3538 -3.8767,1.6502 -5.6491,-2.0666 -1.6146,-3.3859 -1.5954,-3.6034 0.5765,-6.5411 1.4903,-2.0157 2.1421,-4.1167 1.9363,-6.2407 -0.3544,-3.6569 -2.783,-5.2108 -10.3557,-6.6255 -7.248,-1.3541 -12.5612,-8.8138 -14.3971,-20.214 -0.5638,-3.5008 -1.736,-8.6254 -2.605,-11.3881 -1.1902,-3.7839 -1.3236,-5.6971 -0.541,-7.7556 1.2836,-3.3759 2.754,-3.4306 7.0486,-0.2621 3.083,2.2745 4.2687,2.4788 14.9443,2.5743 16.0301,0.1433 16.178,0.1311 18.7304,-1.5413 2.8469,-1.8653 6.9229,-8.9173 7.75,-13.4083 0.7986,-4.3362 2.2749,-6.0953 5.1152,-6.0953 2.841,0 4.1414,1.5629 4.992,6 0.3691,1.925 1.9311,4.9942 3.4711,6.8204 2.7547,3.2666 2.8709,3.3015 7.1685,2.152 11.1663,-2.9866 27.5822,-13.0519 30.1835,-18.5069 0.9089,-1.906 2.2651,-3.4655 3.0137,-3.4655 1.5315,0 4.6712,3.1285 4.6712,4.6544 0,0.5483 1.0951,2.0258 2.4336,3.2832 l 2.4335,2.2862 2.3165,-2.4249 c 1.274,-1.3337 3.083,-3.859 4.0199,-5.6119 2.2342,-4.1799 5.8606,-4.3101 8.7071,-0.3126 2.3869,3.3522 9.7869,6.4259 15.5894,6.4755 2.2166,0.019 6.0064,-0.971 8.5,-2.2204 2.475,-1.24 7.8344,-3.3562 11.9098,-4.7025 4.2441,-1.4021 9.2293,-3.9389 11.6683,-5.9375 2.3422,-1.9192 4.6113,-3.4895 5.0426,-3.4895 0.4312,0 2.2567,-1.4274 4.0567,-3.1719 2.895,-2.806 3.5592,-3.0413 5.7568,-2.04 1.3664,0.6225 3.3709,2.8696 4.4544,4.9935 1.0835,2.1239 3.9143,5.4394 6.2907,7.3677 9.9992,8.1141 16.5281,8.8999 23.3207,2.8067 1.1,-0.9867 3.638,-2.0963 5.6399,-2.4657 3.2757,-0.6044 3.8097,-0.3842 5.3365,2.2004 0.933,1.5796 2.8951,3.6273 4.36,4.5506 1.465,0.9232 6.2624,4.0591 10.661,6.9686 l 7.9973,5.2901 9.0027,-0.077 c 8.821,-0.075 13.2256,-0.9537 20.7526,-4.1398 5.5951,-2.3684 4.79,-3.9887 -2,-4.0254 -9.0262,-0.049 -26.2079,-1.896 -32.25,-3.4674 -7.5607,-1.9663 -9.4613,-3.1035 -17.5,-10.4708 -10.1231,-9.2776 -10.3529,-9.4963 -13.83,-13.1613 -1.7435,-1.8377 -5.195,-4.7229 -7.67,-6.4116 -2.475,-1.6888 -7.8536,-5.5852 -11.9523,-8.6588 -12.8997,-9.6732 -33.2356,-20.2619 -39.5477,-20.5921 -34.0339,-1.7804 -36.39,-2.3946 -45.7198,-11.918 -10.1736,-10.3849 -11.5489,-11.9765 -12.8874,-14.9142 -1.3649,-2.9956 -2.1457,-3.2691 -3.7646,-1.3185 -0.6142,0.7401 -2.8117,2.1099 -4.8833,3.0441 -2.0716,0.9341 -4.8487,3.2777 -6.1712,5.2078 -1.3226,1.9301 -3.1909,3.9301 -4.1519,4.4444 -0.961,0.5143 -5.6166,6.7441 -10.3457,13.844 -4.7292,7.0998 -9.3255,13.1878 -10.2141,13.5288 -2.0333,0.7802 -4.362,-1.0843 -4.362,-3.4926 0,-1.8796 1.5063,-4.3282 8.5643,-13.922 2.2254,-3.025 4.9763,-7.3 6.1129,-9.5 8.8551,-17.1389 15.3124,-30.1318 15.3171,-30.8198 0,-0.4509 1.3557,-2.782 3.0057,-5.1802 1.65,-2.3982 3,-4.5726 3,-4.8321 0,-0.6504 7.7129,-17.3427 10.0749,-21.8041 1.0588,-1.9998 1.9251,-4.5567 1.9251,-5.6819 0,-1.1251 1.3176,-2.9839 2.928,-4.1306 1.6104,-1.1467 3.4177,-3.5399 4.0163,-5.3181 0.5986,-1.7783 4.1185,-7.678 7.822,-13.1104 5.7533,-8.4392 7.68,-10.4512 13.2337,-13.8193 6.3174,-3.8312 6.6826,-3.923 13,-3.2676 8.1568,0.8463 11.2861,2.4516 17.25,8.8493 6.7069,7.1948 6.4546,11.5494 -0.75,12.9444 -1.65,0.3195 -5.025,0.9818 -7.5,1.4718 -2.475,0.49 -7.2,2.2043 -10.5,3.8096 -5.5813,2.7151 -6.2714,3.4411 -9.889,10.4039 -6.216,11.9636 -8.3345,21.2445 -7.8038,34.187 0.1626,3.9649 0.7621,5.2547 3.8251,8.2295 4.1227,4.0039 7.8142,4.9937 16.3278,4.3779 4.8824,-0.3532 6.6799,-1.0404 10.4937,-4.0117 2.5312,-1.972 6.1394,-3.8739 8.0182,-4.2264 2.1015,-0.3942 5.1238,-2.3005 7.8536,-4.9536 2.4406,-2.372 5.0533,-4.5872 5.8059,-4.9226 0.7527,-0.3355 4.5185,-2.6427 8.3685,-5.1272 9.4925,-6.1257 18.493,-10.5661 21.4191,-10.567 2.6847,-9e-4 11.1059,4.4491 18.2149,9.6252 2.5487,1.8557 5.2487,3.3845 6,3.3974 0.7513,0.013 3.616,1.3169 6.366,2.898 9.5079,5.4665 19.0175,9.9654 23.5,11.1175 2.475,0.6362 4.9546,1.5282 5.5101,1.9822 1.8386,1.5027 15.8472,1.2018 24.9899,-0.5369 8.4588,-1.6086 13.7637,-3.2082 19.4137,-5.8539 4.0488,-1.8959 12.2934,-9.8818 13.7153,-13.2848 0.7378,-1.7658 2.4084,-4.3618 3.7124,-5.7689 4.3285,-4.6705 10.6586,-19.6669 10.6586,-25.2509 0,-6.9858 -5.2595,-21.1848 -11.1023,-29.9729 -2.1403,-3.219 -3.8928,-6.2203 -3.8945,-6.6695 0,-0.4492 -1.1142,-2.2734 -2.4722,-4.0537 -3.1193,-4.0897 -5.672,-17.2618 -6.0749,-31.3483 -0.1608,-5.6203 -0.8035,-13.4953 -1.4282,-17.5 -0.6248,-4.0047 -1.1386,-12.1585 -1.1419,-18.1195 0,-5.96094 -0.6827,-15.860941 -1.5098,-21.999951 -2.5011,-18.56451 -3.23,-30.68943 -3.8781,-64.506843 -0.3409,-17.7897404 -1.0424,-33.45654 -1.559,-34.8151 -0.5165,-1.35816 -0.9391,-3.77469 -0.9391,-5.36966 0,-1.59498 -0.6563,-4.83312 -1.4585,-7.19588 -0.8022,-2.36276 -2.1721,-9.91598 -3.0443,-16.78495 -1.5031,-11.8381 -4.6867,-24.37005 -6.471,-25.47283 -1.3254,-0.81914 -6.6099,-11.58707 -8.4583,-17.23498 -0.9393,-2.87034 -2.7995,-7.37034 -4.1337,-10 -1.3342,-2.62967 -2.4277,-5.283016 -2.43,-5.896346 -0.01,-2.01754 4.1029,-6.38486 6.0094,-6.38486 1.0276,0 2.1519,-0.4588 2.4985,-1.01955 1.1286,-1.82617 -1.4714,-7.54863 -4.9707,-10.94035 -4.6899,-4.54562 -8.2097,-13.27791 -6.6934,-16.60575 1.0507,-2.30608 1.5521,-2.44622 7.887,-2.20419 9.8895,0.37782 32.2777,-2.94075 34.765,-5.15314 1.1,-0.97845 2.7461,-2.04106 3.6581,-2.36135 0.9119,-0.3203 3.8369,-3.58335 6.5,-7.25123 2.663,-3.66788 6.0134,-8.08537 7.4452,-9.81665 1.4319,-1.73129 3.1637,-4.2136 3.8486,-5.51625 0.6849,-1.30265 3.2581,-5.01515 5.7182,-8.25 5.0326,-6.61736 7.8837,-7.49456 11.6276,-3.57742 5.3167,5.56264 11.6073,8.2766 13.2023,5.69588 0.3399,-0.55 1.2714,-1 2.0699,-1 0.7985,0 3.3595,-0.87487 5.691,-1.94415 2.3315,-1.06928 6.7869,-2.39668 9.901,-2.94976 3.114,-0.55308 7.389,-1.75477 9.5,-2.67041 3.0998,-1.34455 7.8778,-1.71571 24.8381,-1.92944 22.4018,-0.28231 44.7412,-1.81715 50.5357,-3.4721 2.9274,-0.83607 30.4967,-3.14819 37.4643,-3.14196 1.1,9.8e-4 4.475,0.48713 7.5,1.08032 7.1592,1.4039 26.8862,3.00838 28.6529,2.33046 0.7549,-0.28969 2.0788,0.0594 2.942,0.77582 0.8632,0.7164 3.3486,1.19756 5.5231,1.06926 2.5884,-0.15273 4.8907,0.42773 6.6678,1.68109 3.7459,2.64202 12.8693,7.17087 14.4458,7.17087 1.1499,0 11.3418,4.48749 16.0048,7.04691 0.9551,0.5242 2.3478,0.95309 3.095,0.95309 0.7473,0 2.1555,0.8805 3.1294,1.95668 0.9739,1.07617 5.4312,3.34491 9.905,5.04164 4.7844,1.81453 9.3696,4.33507 11.1342,6.12058 1.65,1.66959 4.5441,4.01336 6.4313,5.20836 1.9455,1.23195 3.7522,3.37823 4.1726,4.95681 0.4077,1.53124 2.9137,4.92952 5.5687,7.55172 6.0657,5.99058 10.3274,11.9226 10.3274,14.3749 0,1.03875 0.7306,3.30152 1.6236,5.02838 1.9815,3.83177 7.6813,20.555096 10.4843,30.760926 1.9246,7.00771 4.9373,15.34036 6.9239,19.15024 0.4733,0.90763 0.7004,6.4845 0.5047,12.39305 -0.354,10.68516 -0.3739,10.76004 -3.6962,13.95407 -2.7176,2.61265 -5.1112,3.61116 -12.8403,5.35658 -5.225,1.17992 -14.675,2.61288 -21,3.18434 -6.325,0.57145 -13.075,1.43794 -15,1.92551 -1.925,0.48757 -7.9549,1.93268 -13.3998,3.21135 -8.8255,2.07258 -10.2905,2.74189 -13.5,6.16788 -3.984,4.25272 -19.2392,12.15772 -25.3716,13.1471396 -2.1594,0.34841 -5.3233,1.97111 -7.4023,3.79649 -3.1683,2.78184 -4.3627,3.19133 -9.3743,3.21414 -4.6593,0.0212 -7.0934,0.73136 -12.8966,3.76267 -5.2758,2.75583 -8.3871,3.74036 -11.8543,3.75109 -2.5856,0.008 -6.7157,0.71598 -9.1781,1.57328 -5.3371,1.85818 -26.6179,1.47318 -36.7513,-0.66489 -5.5998,-1.18152 -6.6057,-1.13411 -9.9692,0.46984 -3.6896,1.75944 -3.7654,1.75374 -5.5217,-0.4152 -2.3019,-2.84269 -2.2452,-3.53891 0.4417,-5.42088003 2.4474,-1.71423997 10.8767,-2.10913997 13.625,-0.63832 2.7605,1.47737003 29.0971,2.37251003 30.6986,1.0434 0.7469,-0.61989 4.4171,-1.24782 8.1559,-1.39542 12.6569,-0.49965 22.895,-4.14934997 35.298,-12.58309957 9.1397,-6.21477 15.2812,-15.72079 12.9595,-20.05901 -2.9326,-5.47954 -10.6744,-5.32701 -22.5049,0.4434 -4.925,2.40221 -10.0796,4.70326 -11.4546,5.11344 -1.375,0.41019 -4.975,2.03083 -8,3.60142 -3.025,1.57059 -7.4447,3.27895 -9.8216,3.79634 -2.3768,0.5174 -5.1123,1.65631 -6.0787,2.53093 -0.9665,0.87462 -2.8591,1.59022 -4.2059,1.59022 -1.3468,0 -3.3364,0.61952 -4.4213,1.37671 -2.1835,1.52399 -13.9505,3.08817 -22.4725,2.98728 -4.9288,-0.0584 -19.5558,-2.93877 -27.5,-5.41542 -1.65,-0.5144 -5.0091,-1.56248 -7.4647,-2.32907 -5.266,-1.64393 -7.0674,-5.39531 -4.4842,-9.33788 1.8678,-2.85058 4.5647,-2.91702 7.0439,-0.17353 2.4503,2.71156 10.6692,6.8847 13.6218,6.9165 1.2557,0.0135 4.7582,0.8442 7.7832,1.84596 5.5816,1.8484 7.9936,1.92626 20.5,0.66173 8.3336,-0.84261 13.255,-2.29381 16.0645,-4.73698 1.1354,-0.98742 2.9528,-1.7953 4.0385,-1.7953 1.0858,0 3.7315,-0.89598 5.8795,-1.99107 2.1479,-1.09508 5.5056,-2.28689 7.4614,-2.64847 3.576,-0.66107 26.6838,-10.84543 31.8084,-14.01896 3.7094,-2.29709 5.2477,-4.30592 5.2477,-6.85263 0,-2.59204 -5.9764,-9.76277 -10.8962,-13.07358 -1.9821,-1.33389 -5.6288,-3.98648 -8.1038,-5.89465 -6.6744,-5.14577 -22.2162,-12.52064 -26.3861,-12.52064 -1.3727,0 -2.774,-0.45 -3.1139,-1 -0.3399,-0.55 -2.2097,-1 -4.1551,-1 -1.9454,0 -5.8563,-0.66695 -8.691,-1.48211 -2.8346,-0.81516 -9.6812,-1.63595 -15.2146,-1.82398 -5.5334,-0.18802 -10.5686,-0.65576 -11.1893,-1.03941 -2.2861,-1.41285 -12.6675,0.86681 -29.4347,6.46355 -12.1309,4.0492 -17.755,7.13207 -21.8153,11.95821 -4.5143,5.36578 -6.4347,10.42196 -7.9468,20.92374 -1.5772,10.9539 -4.1878,17 -7.3402,17 -1.2722,0 -2.7587,-0.44568 -3.3034,-0.9904 -0.5447,-0.54472 -3.0624,-1.2744 -5.5948,-1.6215 -3.7109,-0.50865 -5.6918,-0.1332 -10.2095,1.93508 -3.367,1.54146 -5.6053,3.19853 -5.6053,4.14978 0,0.87098 -2.432,3.84706 -5.4043,6.61352 -2.9724,2.76646 -6.6204,6.78467 -8.1067,8.92937 -1.6615,2.3975 -4.0326,4.3384796 -6.1562,5.0393196 -3.2447,1.07085 -3.8153,0.89181 -9.4236,-2.9568696 -6.8342,-4.68996 -12.1037,-7.0983 -15.5313,-7.0983 -2.8935,0 -2.9012,0.3093 -0.3457,13.9999996 3.1344,16.7927204 5.0454,29.0839804 5.4416,35.0000034 0.2026,3.025 0.7984,11.35 1.3241,18.5 0.5257,7.15 1.0293,22.9 1.1192,35 0.1092,14.6973 0.6251,23.991601 1.5542,28.000001 1.5966,6.8881 3.8285,30.2059 3.0169,31.5191 -0.2986,0.4831 -0.012,2.9861 0.6366,5.5623 1.421,5.6432 9.0936,14.6858 17.8949,21.09 3.2565,2.3696 6.6828,5.4711 7.6139,6.8922 0.9312,1.4212 3.9878,4.0518 6.7924,5.8459 7.8433,5.0173 19.8416,15.3837 22.1227,19.1136 1.1268,1.8425 4.7159,6.1911 7.9757,9.6635 9.3855,9.9975 22.4595,26.604 32.8306,41.7016 2.1202,3.0865 5.2991,7.4118 7.0642,9.6118 1.7651,2.2 5.4073,7.15 8.0937,11 2.6864,3.85 7.4949,9.9852 10.6857,13.6338 5.5324,6.3263 6.5538,8.7418 5.1944,12.2844 -0.9112,2.3747 -5.8709,1.9365 -10.393,-0.9182 -2.1781,-1.375 -4.6621,-2.5 -5.52,-2.5 -1.8815,0 -9.3103,-3.6447 -11.69,-5.7353 -2.0854,-1.8321 -6.8697,-1.1253 -11.4997,1.699 -3.6772,2.2431 -7.2903,8.6073 -7.2903,12.8415 0,3.0442 -2.6285,6.1948 -5.1682,6.1948 -2.5077,0 -3.8512,-4.5209 -3.1987,-10.7635 0.664,-6.3534 -0.9738,-12.8432 -7.1123,-28.1825 -4.9849,-12.4567 -6.5056,-15.2665 -9.7787,-18.067 -2.8162,-2.4097 -4.9237,-6.7326 -6.7111,-13.7653 -0.4582,-1.8031 -1.332,-3.8794 -1.9417,-4.614 -0.6096,-0.7346 -2.0407,-4.2094 -3.1802,-7.7217 -2.8004,-8.6318 -6.1098,-14.0849 -10.8045,-17.8032 -3.4604,-2.7406 -4.7658,-3.1342 -11.0939,-3.3445 -6.7541,-0.2244 -7.3129,-0.075 -9.5913,2.5675 -1.3307,1.5431 -2.4194,3.4011 -2.4194,4.1289 0,0.7277 -1.5226,6.3383 -3.3835,12.4679 -3.2527,10.714 -3.3288,11.3318 -1.9659,15.981 2.0798,7.095 7.2237,12.6603 12.5601,13.5891 5.9655,1.0382 8.3963,1.0733 15.315,0.221 4.3234,-0.5326 6.5066,-0.3823 7.7283,0.532 2.3301,1.7439 6.5773,13.8118 7.772,22.0831 0.5409,3.7448 1.6087,8.0198 2.373,9.5 1.5742,3.0489 2.0157,8.0244 1.7707,19.9559 -0.1614,7.8595 -0.3323,8.4421 -3.4868,11.8843 -3.6066,3.9355 -4.5748,4.1153 -15.2569,2.8338 l -6.074,-0.7287 -2.176,5.0584 c -1.1968,2.782 -2.176,5.5523 -2.176,6.1561 0,5.8424 -14.5618,22.234 -21.4312,24.1243 -2.1622,0.595 -5.3122,2.1232 -7,3.3961 -1.6879,1.2729 -4.7563,3.0106 -6.8188,3.8616 -2.0625,0.8511 -3.75,1.9836 -3.75,2.5168 0,0.5332 1.605,1.9614 3.5666,3.1738 4.5569,2.8163 8.9482,2.3076 17.8315,-2.0656 7.3832,-3.6348 8.9542,-3.2727 10.4137,2.4002 1.2052,4.6846 5.0246,4.7771 8.7889,0.213 5.4398,-6.5955 7.19,-9.152 8.6401,-12.6207 0.7975,-1.9075 2.6897,-4.1308 4.2051,-4.9409 2.5313,-1.3531 2.8756,-1.3125 4.2378,0.5 1.5089,2.0077 1.4227,4.3326 -0.5922,15.9728 -0.647,3.738 -0.5089,5.6941 0.5472,7.75 2.2629,4.4052 5.5766,3.6509 12.0804,-2.75 3.0737,-3.025 5.9253,-5.5 6.3369,-5.5 0.4116,0 1.219,-1.35 1.7942,-3 0.8996,-2.5806 1.5467,-3 4.6292,-3 2.3617,0 3.7926,0.5453 4.1971,1.5994 0.3376,0.8797 -0.3634,5.8534 -1.5578,11.0528 -1.1943,5.1994 -1.908,9.8796 -1.5861,10.4006 1.0687,1.7292 16.3544,1.127 19.5673,-0.7709 2.8072,-1.6583 2.9831,-1.6434 5.0544,0.428 1.7221,1.7221 2.1857,3.4935 2.3467,8.968 0.1104,3.7522 0.2678,7.1596 0.3498,7.5721 0.4755,2.3907 14.7985,-1.6324 18.6314,-5.2333 2.4383,-2.2906 4.5685,-2.566 6.3178,-0.8167 1.4199,1.4199 1.6033,6.4327 0.2656,7.2595 -1.3973,0.8635 -4.1603,11.1302 -3.4756,12.9145 0.3271,0.8524 1.5657,1.8773 2.7524,2.2774 3.6695,1.2374 13.2141,0.6293 16.4587,-1.0486 4.0733,-2.1063 8.1989,-0.7302 8.1989,2.7349 0,2.7981 -4.8991,9.3126 -8.786,11.683 -1.4927,0.9104 -3.3631,2.4411 -4.1565,3.4016 -3.9396,4.7698 -20.5526,13.2693 -31.397,16.0633 -11.5262,2.9697 -28.2737,4.0984 -40.6605,2.7403 z m 147,-564.52973 c 0,-0.71711 -1.6241,-2.85461 -3.609,-4.75 -1.985,-1.89539 -4.6219,-5.02469 -5.8597,-6.95399 -1.6423,-2.55973 -3.8427,-4.13589 -8.141,-5.83163 -3.2396,-1.27809 -7.4934,-2.99236 -9.4528,-3.80949 -6.8182,-2.84345 -23.7831,-3.37759 -40.359,-1.27071 -7.3143,0.92968 -10.7822,2.03615 -19.25,6.14202 -5.6807,2.75442 -10.3285,5.40883 -10.3285,5.89867 0,0.95624 16.2154,0.0449 19.383,-1.08933 1.0357,-0.37084 3.9607,-0.29382 6.5,0.17117 2.5394,0.46499 7.992,1.08991 12.117,1.38872 4.125,0.29881 8.4,0.94858 9.5,1.44393 1.9727,0.88836 13.7776,3.34043 24.5,5.08904 3.025,0.49332 8.425,1.76005 12,2.81495 7.7848,2.29711 13,2.60065 13,0.75665 z M 861.92859,434.99849 c -8.7915,-2.684 -20.1279,-12.0684 -25.1804,-20.8446 -3.1891,-5.5396 -6.4432,-12.6763 -9.352,-20.5105 -1.9993,-5.3846 -7.2555,-14.7945 -9.8035,-17.5507 -3.7706,-4.0786 -10.8799,-8.8216 -20.7752,-13.8605 -5.2764,-2.6867 -12.0147,-7.0031 -14.974,-9.5918 -2.9593,-2.5887 -5.686,-4.7068 -6.0594,-4.7068 -0.782,0 -4.8161,-10.7135 -7.3427,-19.5 -0.9489,-3.3 -2.1274,-7.0337 -2.619,-8.2971 -0.4916,-1.2633 -0.8938,-3.07 -0.8938,-4.0148 0,-0.9447 -0.8921,-3.3822 -1.9825,-5.4167 -2.152,-4.0151 -1.8364,-6.2628 1.1001,-7.8344 2.9254,-1.5656 5.6661,0.5392 6.9404,5.33 2.9948,11.2592 15.9874,21.7313 28.5873,23.0415 3.3799,0.3514 7.2049,1.0588 8.5,1.5719 1.2951,0.5131 4.9147,1.451 8.0436,2.0843 6.915,1.3995 18.7853,8.9734 25.0396,15.9766 2.3493,2.6306 6.3965,8.3325 8.9937,12.6708 5.0906,8.5034 7.1346,16.4722 10.1876,39.7183 2.0162,15.3508 5.8956,22.1103 13.5902,23.6794 1.8006,0.3672 2.5,1.158 2.5,2.8266 0,1.9049 -0.9712,2.6589 -5.4616,4.2402 -3.0039,1.0579 -5.7039,1.8847 -6,1.8374 -0.2961,-0.047 -1.6634,-0.4294 -3.0384,-0.8491 z m 45.5,-0.026 c -1.1,-0.4988 -3.7272,-1.1894 -5.8382,-1.5346 -2.7168,-0.4442 -5.1271,-1.9166 -8.25,-5.0394 -2.4265,-2.4265 -4.4118,-4.9508 -4.4118,-5.6094 0,-0.6587 -0.627,-1.9081 -1.3933,-2.7764 -2.6747,-3.0305 -5.6637,-18.1246 -5.3758,-27.1466 0.148,-4.6376 -0.077,-10.0587 -0.5008,-12.0467 -0.6104,-2.8655 -0.3684,-4.1091 1.1672,-6 l 1.9372,-2.3854 2.832,2.1074 c 1.5577,1.1591 3.4345,3.8591 4.1707,6 0.7363,2.1409 3.6045,8.5689 6.3739,14.2843 8.265,17.0571 19.2354,26.2475 35.2445,29.5259 6.5918,1.3499 9.5444,3.2383 9.5444,6.1045 0,2.0423 -4.3375,3.3656 -13,3.9661 -4.675,0.3241 -11.2,0.7845 -14.5,1.0232 -3.3,0.2387 -6.9,0.026 -8,-0.4729 z m 81.1425,-444.1449144 c -1.5716,-0.42795 -3.5966,-1.4134896 -4.5,-2.1900796 -1.7029,-1.4639 -15.6593,-4.12019 -17.0693,-3.24877 -0.4401,0.27202 -3.8991,-0.15788 -7.6867,-0.95533 -6.5922,-1.38794 -10.262,-2.32992 -25.8865,-6.64472 -13.6962,-3.78228 -15.7517,-3.99986 -31.5119,-3.33566 -14.2287,0.59965 -15.966,0.48117 -21,-1.43214 -3.0185,-1.14724 -6.3881,-2.09191 -7.4881,-2.09929 -7.2879,-0.0489 -31.919,-10.9036 -34.7128,-15.29772 -1.3601,-2.13905 -0.8139,-6.13095 1.2573,-9.18988 2.2154,-3.27192 12.1946,-23.57769 14.7434,-30 0.8731,-2.2 3.978,-7.86447 6.8998,-12.58772 2.9217,-4.723246 5.3123,-9.497946 5.3123,-10.610446 0,-1.11251 1.125,-3.68052 2.5,-5.70669 1.375,-2.02618 2.5,-4.0521 2.5,-4.50204 0,-0.44995 1.3712,-2.54348 3.047,-4.6523 3.4533,-4.34536 8.4051,-7.43378 15.9219,-9.93048 2.8374,-0.94241 6.3676,-2.81295 7.8449,-4.15675 1.4774,-1.34381 7.8612,-5.8411 14.1862,-9.99399 6.325,-4.15288 12.429,-8.4077 13.5644,-9.45514 1.1355,-1.04784 2.431,-1.90484 2.8788,-1.90484 0.8537,0 6.949,-5.05938 12.0568,-10.00757 3.0269,-2.93228 10.0971,-7.99243 11.1674,-7.99243 0.3182,0 3.5121,-2.09329 7.0975,-4.65175 5.8127,-4.1479 7.8845,-4.95877 19.127,-7.48622 6.9344,-1.55895 15.5331,-3.09441 19.1081,-3.41213 3.57501,-0.31772 10.08391,-1.49702 14.46421,-2.62067 6.6423,-1.70389 10.7089,-2.01343 24.5,-1.86487 9.0947,0.098 21.0358,-0.0674 26.5358,-0.36751 33.8203,-1.84534 53.6074,-1.02627 66.2831,2.74371 2.9057,0.86421 5.9489,1.31578 6.7627,1.00349 0.8138,-0.31229 2.1761,0.0102 3.0274,0.71668 0.8512,0.70647 5.458,1.83328 10.2372,2.50404 12.9448,1.81676 21.9029,4.09487 25.1255,6.3896 1.5801,1.1251 3.3459,2.04563 3.9241,2.04563 0.5781,0 2.709,1.125 4.7351,2.5 2.0262,1.375 4.4532,2.5 5.3934,2.5 1.7851,0 17.9193,11.45001 19.3112,13.70464 0.4398,0.71245 1.4891,1.29536 2.3317,1.29536 0.8426,0 4.1395,1.52817 7.3263,3.39593 7.6016,4.45514 26.0612,11.8324 28.2048,11.27183 3.4171,-0.89361 12.0459,6.19333 14.3996,11.82675 1.9384,4.6392 0.6738,6.58998 -6.5126,10.04654 -3.3379,1.60544 -8.2039,5.36115 -12.21,9.42387 -6.2092,6.29695 -6.7084,7.13752 -7.3664,12.40415 -0.4279,3.424386 -0.2476,7.469446 0.4577,10.270396 1.1881,4.71846 3.3593,27.03976 3.245,33.36053 -0.047,2.59641 -0.8564,4.20996 -3.1353,6.25 -3.0069,2.69167 -7.0405,3.70899 -7.0405,1.77568 0,-1.93555 -6.0751,-4.05258 -12.2221,-4.2591 -6.8979,-0.23174 -17.2202,2.2229 -22.7207,5.40302 -6.4923,3.75354 -41.2726,5.17635 -56.8524,2.32573 -2.2086,-0.4041 -3.588,-1.37295 -4.183,-2.93803 -0.4883,-1.28432 -2.2073,-3.84761 -3.8199,-5.69621 -1.6126,-1.8486 -3.2785,-4.48609 -3.7019,-5.86109 -0.925,-3.00379 -5.6489,-8.74076 -9.4694,-11.5 -1.523,-1.1 -5.7156,-4.475 -9.3168,-7.5 -7.7397,-6.50125 -12.7323,-9.16202 -22.2138,-11.83858 -13.2372,-3.73675 -39.5646,-6.04243 -49,-4.29128 -7.469,1.38619 -21.5238,4.79592 -25.5,6.18636 -6.3998,2.23792 -28.12631,13.02244 -32.24341,16.00489 -2.2312,1.61623 -4.6238,2.93861 -5.3168,2.93861 -2.0839,0 -11.2836,7.79728 -12.9096,10.94165 -2.7049,5.23055 0.1514,9.20445 8.3187,11.57386 3.1081,0.90169 7.5756,2.50457 9.9278,3.56196 2.3522,1.05739 5.5541,1.92253 7.1152,1.92253 1.5611,0 3.9116,0.80542 5.2232,1.78982 5.0607,3.79802 7.274,4.4455 24.38491,7.13369 3.3,0.51845 7.575,1.45639 9.5,2.08433 3.9361,1.28396 23.1695,2.48293 39,2.43118 10.9753,-0.0359 15.6925,-0.80485 27.7833,-4.52901 7.407,-2.28147 9.9235,-1.9155 8.7028,1.26561 -0.6626,1.7266 -9.1545,5.82438 -12.07,5.82438 -1.0694,0 -4.4066,0.9 -7.4161,2 -3.0095,1.1 -7.2781,2.01786 -9.4859,2.03969 -2.2078,0.0218 -7.3891,0.64957 -11.5141,1.39496 -6.1885,1.11828 -7.8641,1.12654 -9.5821,0.0473 -1.2597,-0.79136 -5.2096,-1.3088 -10,-1.31 -4.7847,-0.001 -9.6881,-0.64284 -12.3914,-1.62146 -2.4605,-0.8907 -6.2855,-1.57922 -8.5,-1.53003 -2.2146,0.0492 -6.0515,-0.42894 -8.5265,-1.06252 -2.475,-0.63357 -7.2,-1.82864 -10.50001,-2.65571 -3.3,-0.82706 -7.0337,-1.9084 -8.2971,-2.40297 -1.2633,-0.49461 -3.3311,-0.89926 -4.595,-0.89926 -1.2638,0 -3.0657,-0.84835 -4.004,-1.88522 -0.9384,-1.03688 -3.0331,-2.15062 -4.655,-2.475 -1.6219,-0.32437 -4.8614,-1.45047 -7.1989,-2.50244 -14.9473,-6.72685 -20.1941,-7.88395 -22.1219,-4.87871 -2.2636,3.52878 1.0549,6.72928 10.8719,10.48523 4.95,1.89385 9.675,4.02461 10.5,4.73503 1.4426,1.24225 6.606,3.9116 23.2349,12.01196 8.15251,3.97127 10.69341,6.02937 9.17271,7.42968 -1.35061,1.2436696 -9.49221,1.8642896 -12.76511,0.9730596 z m -24.0182,-84.4470796 c 2.1316,-1.95443 5.9007,-4.84518 8.3757,-6.423906 6.7689,-4.31769 23.6225,-10.76417 31.38291,-12.00389 3.7784,-0.6036 8.5005,-1.78317 10.4935,-2.62125 10.7324,-4.51313 47.651,-8.6129 51.3154,-5.69852 0.7195,0.57225 4.1408,1.34871 7.6029,1.72548 3.4622,0.37676 8.3785,1.5782 10.9253,2.66988 12.4586,5.34039 6.1511,-2.69715 -7.1275,-9.0824 -8.681,-4.17441 -22.9695,-7.84489 -31.0925,-7.98717 -2.75,-0.0482 -6.125,-0.10823 -7.5,-0.13349 -16.5893,-0.30468 -27.9252,1.88431 -43.27651,8.35678 -9.2971,3.91987 -12.0093,5.76334 -25.2736,17.17849 -4.1633,3.58255 -11.4499,14.377866 -11.4499,16.963066 0,1.42655 1.9992,0.38029 5.6243,-2.94347 z M 815.40859,-246.81641 c 2.5978,-18.11004 -0.6725,-29.73039 -12.9122,-45.88095 -1.6126,-2.12798 -3.9832,-4.99405 -5.2679,-6.36905 -1.2847,-1.375 -3.1817,-3.625 -4.2157,-5 -1.0339,-1.375 -3.6134,-3.37133 -5.732,-4.4363 -2.1187,-1.06496 -5.4272,-2.85925 -7.3522,-3.9873 -8.9095,-5.22098 -27.4497,-9.50053 -48.5,-11.19506 -7.5544,-0.60812 -13.3098,-2.39764 -23.5,-7.30687 -11.7082,-5.64053 -19.0238,-18.54936 -22.4272,-39.57447 -2.5457,-15.72632 -6.2735,-25.85542 -12.1595,-33.03985 -1.8204,-2.22191 -7.8545,-7.39691 -13.4091,-11.5 -16.4301,-12.13669 -24.5339,-18.5757 -28.4891,-22.63652 -4.9038,-5.0347 -10.1895,-13.07656 -11.0578,-16.82363 -0.3824,-1.65 -1.3759,-4.08701 -2.2078,-5.41558 -1.1984,-1.91388 -1.366,-4.09464 -0.807,-10.5 0.3881,-4.44643 0.9034,-11.00942 1.1451,-14.58442 0.2418,-3.575 1.1386,-7.98148 1.9929,-9.79217 0.8543,-1.81069 1.915,-5.57988 2.357,-8.37598 0.5931,-3.75193 1.601,-5.82899 3.8471,-7.92817 1.6739,-1.5644 3.3591,-4.32021 3.7449,-6.12402 0.3858,-1.80381 1.0374,-3.72966 1.4481,-4.27966 0.4106,-0.55 1.0316,-2.19507 1.3799,-3.65571 0.5676,-2.38027 4.6463,-9.34305 9.1687,-15.65201 2.22,-3.09704 6.5081,-2.63776 8.1842,0.87658 0.7367,1.54479 1.4497,9.43676 1.7885,19.79694 0.4803,14.68889 0.9418,18.4371 3.1308,25.43114 4.5504,14.5389 13.0133,27.20884 27.3547,40.95306 5.0216,4.8125 9.5457,8.75 10.0535,8.75 0.5078,0 3.3497,1.55217 6.3153,3.44927 7.1394,4.567 15.2198,13.85836 17.2098,19.78897 0.8744,2.60603 1.9529,4.9626 2.3966,5.23682 0.8045,0.49721 2.2608,4.89297 8.033,24.24791 2.5915,8.68957 3.8283,11.15959 8.2454,16.46727 10.6012,12.7387 15.3956,16.68792 27.762,22.86797 9.771,4.88304 22.5751,13.19872 28.7521,18.67324 7.9893,7.08067 19.5423,23.27582 23.0192,32.26855 3.0301,7.83718 11.2316,40.11126 11.2136,44.12742 -0.023,5.16371 -2.4592,11.04082 -5.6277,13.57628 -4.5528,3.64321 -5.6711,3.0806 -4.8772,-2.4537 z m 23.7164,-75.5133 c -0.5766,-0.69481 -1.5708,-3.50731 -2.2092,-6.25 -1.7588,-7.55573 -3.0205,-10.45257 -7.3202,-16.80671 -3.6384,-5.37688 -12.9745,-13.67999 -15.3819,-13.67999 -1.2849,0 -10.0883,-4.87247 -10.7563,-5.95339 -0.2695,-0.43613 -2.875,-1.95978 -5.7899,-3.3859 -2.9148,-1.42612 -7.086,-4.08206 -9.2693,-5.90209 -2.1833,-1.82003 -5.7772,-4.47226 -7.9866,-5.89385 -4.7415,-3.05093 -9.0118,-8.96907 -10.0044,-13.86477 -0.3902,-1.925 -1.2201,-4.13171 -1.8441,-4.90379 -0.745,-0.92182 -1.1689,-7.70473 -1.2347,-19.75575 -0.085,-15.55579 -0.3516,-18.6297 -1.75,-20.17494 -0.9074,-1.00265 -1.6498,-2.2803 -1.6498,-2.83922 0,-2.698 -8.8055,-13.94824 -18.8467,-24.07941 -6.1343,-6.18921 -11.1533,-11.94845 -11.1533,-12.79831 0,-0.84985 -0.855,-3.31484 -1.9,-5.47774 -1.415,-2.9288 -1.9,-6.1301 -1.9,-12.5423 0,-8.51122 0.068,-8.74476 5.9098,-20.40488 3.2505,-6.48732 6.5244,-12.3051 7.2754,-12.92839 0.751,-0.6233 1.9301,-3.14972 2.6201,-5.61427 0.69,-2.46455 1.6461,-4.481 2.1247,-4.481 0.999,0 0.9993,0.002 1.3643,10 0.5668,15.5211 12.152,37.24225 23.3031,43.69065 9.9297,5.74215 20.6479,13.43919 22.3738,16.06727 3.2098,4.88781 5.1536,16.47533 4.4646,26.61587 -1.9846,29.20847 -1.9535,34.84378 0.2326,42.18435 2.6873,9.02359 6.078,14.0374 16.1909,23.94186 8.2458,8.07586 17.9859,20.75391 22.0406,28.68877 2.6587,5.20306 6.8643,18.41325 6.8851,21.62697 0.032,4.9552 -3.364,7.84232 -5.7886,4.92096 z m 435.75401,-71.29645 c -1.9823,-2.38858 -0.066,-6.57562 3.5496,-7.75684 5.2932,-1.72915 11.4229,-6.63594 24.4309,-19.55687 14.2022,-14.10711 21.2613,-23.12284 29.0694,-37.12654 2.9133,-5.225 5.8518,-10.175 6.53,-11 0.6782,-0.825 1.5673,-2.625 1.9757,-4 0.4084,-1.375 2.4077,-5.875 4.4429,-10 4.7955,-9.71953 6.668,-15.47446 14.4787,-44.5 9.5146,-35.35778 10.8912,-77.70959 3.251,-100.02227 -4.822,-14.08218 -12.8299,-27.88276 -17.6878,-30.48264 -1.0949,-0.586 -1.9908,-1.5875 -1.9908,-2.22555 0,-0.63806 -1.0909,-2.30973 -2.4241,-3.71482 -4.9386,-5.20458 -17.5724,-30.68467 -21.5958,-43.55472 -2.775,-8.87663 -3.1175,-11.29188 -3.049,-21.5 0.042,-6.325 0.3524,-13.75 0.689,-16.5 0.7437,-6.07646 4.6052,-18.67053 8.4535,-27.57029 4.6799,-10.82322 7.2769,-24.86228 6.5073,-35.17849 -1.0785,-14.45857 1.723,-16.29522 10.2478,-6.71836 8.1464,9.15164 11.6267,15.67751 14.1234,26.482 l 2.2089,9.55882 -1.9987,13.71316 c -1.9849,13.61874 -7.0953,34.20512 -9.7934,39.45169 -2.6722,5.19599 -4.6534,17.79088 -3.9645,25.20325 0.8002,8.60925 3.165,17.97146 5.4019,21.38529 0.927,1.41484 3.4873,6.03737 5.6896,10.27228 2.2022,4.23491 7.3682,13.93252 11.4798,21.55024 4.1117,7.61773 8.2331,15.49533 9.1588,17.5058 0.9256,2.01046 3.3589,6.27522 5.4072,9.47725 2.0483,3.20202 4.5964,7.85659 5.6624,10.3435 1.066,2.4869 2.9645,5.87214 4.2188,7.52275 3.6026,4.74063 5.0501,8.21116 8.5506,20.50111 l 3.2755,11.5 -0.6154,19.5 c -0.6965,22.07084 -3.5877,45.93133 -6.6924,55.23079 -4.7771,14.30862 -12.9769,30.14842 -19.3275,37.33543 -2.8838,3.26358 -6.6982,8.07128 -8.4765,10.68378 -1.7783,2.6125 -3.686,4.75 -4.2394,4.75 -0.5533,0 -5.3692,4.17727 -10.7019,9.28283 -15.8288,15.15451 -29.5897,24.94192 -41.9504,29.83716 -4.26,1.68711 -9.9955,3.97245 -12.7455,5.07853 -2.75,1.10607 -6.8,2.6422 -9,3.41362 -2.2,0.77141 -4.7814,1.84926 -5.7364,2.39521 -2.5336,1.44833 -5.334,1.21524 -6.8132,-0.5671 z m -331.56641,-25.882 c -0.3524,-0.91815 -0.2597,-3.78187 0.206,-6.36381 1.6556,-9.18021 0.9893,-17.24802 -1.9104,-23.13159 -1.4738,-2.99044 -2.6796,-5.8332 -2.6796,-6.31726 0,-0.89948 -3.7583,-5.79533 -10,-13.02678 -6.4749,-7.50162 -17.7446,-16.26276 -26.6539,-20.72093 -10.9498,-5.47922 -22.2804,-16.3443 -26.069,-24.99788 -1.3244,-3.025 -3.3734,-7.525 -4.5534,-10 -4.129,-8.66062 -5.8614,-28.32318 -3.2765,-37.18794 2.4376,-8.35925 10.6474,-23.648 15.4718,-28.81206 2.3121,-2.475 4.9136,-5.85 5.7811,-7.5 0.8675,-1.65 2.924,-4.54558 4.5701,-6.43462 7.8,-8.95125 8.9555,-22.48853 2.3847,-27.93782 -0.9102,-0.75485 -1.6549,-2.04597 -1.6549,-2.86916 0,-0.82319 -3.3785,-5.65444 -7.5078,-10.73611 -10.4631,-12.87634 -11.89,-17.29781 -11.9481,-37.02229 -0.042,-14.38187 0.088,-15.37088 3.1513,-24 6.5502,-18.4491 6.4317,-18.21762 10.0234,-19.58318 3.6923,-1.40382 4.9895,0.24557 5.8029,7.3785 0.3891,3.41258 1.1656,7.10468 1.7256,8.20468 1.6426,3.22675 15.8772,24.6829 18.9097,28.50302 6.482,8.16563 8.343,22.2632 5.8317,44.179 -1.0112,8.82559 -5.0598,20.75322 -9.4249,27.767 -1.2154,1.95304 -2.5039,4.34743 -2.8631,5.32088 -0.3593,0.97344 -2.3745,4.34844 -4.4783,7.5 -4.5466,6.81106 -10.7674,20.29532 -12.1709,26.38212 -1.2802,5.5518 -1.3184,14.16781 -0.091,20.63745 2.0279,10.69321 5.6715,15.75855 22.2709,30.96162 3.1521,2.8869 6.1532,5.24891 6.6691,5.24891 2.0256,0 15.5113,16.03082 21.4515,25.5 8.9848,14.32238 11.0043,21.80164 10.8,39.99786 -0.1293,11.51104 -0.5571,15.2282 -2.4044,20.89363 -2.4144,7.4044 -6.091,11.48218 -7.3632,8.16676 z m 329.19481,-16.12226 c -1.413,-1.41305 -1.4149,-1.85236 -0.019,-4.55145 0.8497,-1.64309 2.3089,-3.26521 3.2426,-3.6047 0.9338,-0.3395 3.1759,-1.89135 4.9825,-3.44855 1.8067,-1.55721 3.6639,-2.83129 4.1272,-2.83129 1.3139,0 11.3268,-14.14724 12.3859,-17.5 0.5212,-1.65 1.557,-4.35 2.3019,-6 4.0657,-9.00638 4.4834,-21.09035 1.4636,-42.34981 -2.4622,-17.33423 -11.423,-41.45123 -20.0281,-53.90339 -2.6992,-3.9059 -6.3145,-9.9468 -8.034,-13.42422 -1.7195,-3.47742 -4.4483,-7.694 -6.0638,-9.37019 -1.6157,-1.67618 -2.9375,-3.57302 -2.9375,-4.2152 0,-0.64218 -1.2375,-2.64576 -2.75,-4.45239 -5.074,-6.0608 -6.8978,-9.23855 -10.2068,-17.7848 -1.8101,-4.675 -3.6242,-9.1835 -4.0313,-10.01889 -0.4071,-0.8354 -0.7936,-3.88998 -0.8589,-6.78797 -0.091,-4.05556 0.2627,-5.41545 1.5376,-5.90465 2.0126,-0.77231 6.5575,4.29762 9.2311,10.29758 1.827,4.09992 12.0996,14.71473 19.5783,20.23046 6.9235,5.10627 38.1865,38.14113 42.8054,45.23139 2.7688,4.25033 7.6806,18.97162 8.8178,26.4279 0.5892,3.8633 1.7025,9.48122 2.474,12.48428 2.9703,11.56139 1.1349,25.23124 -6.1096,45.5042 -2.1821,6.10636 -4.9339,11.41512 -8.0216,15.47519 -4.7651,6.26566 -14.17,16.06051 -15.4211,16.06051 -0.376,0 -3.1275,1.83542 -6.1143,4.0787 -6.1496,4.61871 -18.2684,11.9213 -19.7836,11.9213 -0.5523,0 -1.708,-0.7038 -2.5682,-1.56401 z m -133.3354,-29.59261 c -0.7874,-0.78733 -0.9647,-3.64615 -0.5554,-8.95379 0.8018,-10.39711 -1.0789,-21.54341 -5.2964,-31.38959 -5.0407,-11.76831 -10.0912,-16.16775 -49.0767,-42.75 -4.6381,-3.1625 -8.8719,-5.75 -9.4084,-5.75 -0.5365,0 -4.1512,-3.17573 -8.0327,-7.05718 -5.445,-5.44506 -8.007,-9.04294 -11.2155,-15.75 -4.1431,-8.66106 -4.1582,-8.73484 -4.1252,-20.19282 0.031,-10.57911 0.2793,-12.07391 3.107,-18.6669 2.4366,-5.68098 2.9905,-8.2082 2.6713,-12.18922 -0.4642,-5.79051 2.2414,-16.45714 4.0254,-15.86956 0.6397,0.21072 1.3977,2.82271 1.6844,5.80441 0.2866,2.9817 1.3111,6.59803 2.2765,8.03629 1.4074,2.09662 1.546,3.16594 0.6988,5.39404 -1.313,3.45343 0.1399,8.50973 3.8765,13.49094 1.444,1.925 4.7482,6.71485 7.3427,10.6441 6.5566,9.92984 14.8474,17.97955 24.5702,23.8559 4.5501,2.75 9.4972,5.93975 10.9935,7.08833 1.4963,1.14858 5.5879,3.603 9.0924,5.45426 4.4211,2.33544 7.5343,4.91067 10.1688,8.41166 6.5514,8.70607 14.2018,23.30146 16.6566,31.77741 2.0819,7.1886 3.2397,26.63667 2.1293,35.76834 -0.9497,7.81019 -4.3644,20.58751 -6.0798,22.75 -1.2431,1.56709 -3.9831,1.61358 -5.5033,0.0934 z m 33.9566,-1.04338 c -1.5916,-1.59156 -1.5215,-4.88727 0.1558,-7.32749 2.6806,-3.89985 5.2954,-13.70402 8.0868,-30.3214 1.2346,-7.34902 0.3969,-16.54462 -2.3289,-25.56761 -0.5124,-1.69593 -1.2022,-5.31795 -1.533,-8.04895 -0.7939,-6.55372 -5.3075,-18.01481 -11.2624,-28.59748 -6.8342,-12.1455 -12.9581,-19.4477 -37.2665,-44.43707 -14.6897,-15.10119 -21.2375,-23.13137 -22.4937,-27.58611 -0.3744,-1.32764 -2.0019,-5.37215 -3.6167,-8.9878 -3.7025,-8.29015 -4.7336,-13.32876 -5.9193,-28.92609 -1.0953,-14.40799 0.07,-30.41169 3.0528,-41.93834 1.0588,-4.09108 1.9251,-8.51433 1.9251,-9.82944 0,-2.86659 4.6119,-14.72246 7.0923,-18.23222 0.9717,-1.375 2.5443,-5.35383 3.4948,-8.84184 1.6885,-6.19684 3.5705,-8.40059 5.5141,-6.45692 1.332,1.33199 2.875,11.56828 1.9293,12.79876 -1.1445,1.48911 -3.0309,15.68892 -3.0277,22.79085 0,11.07176 2.0598,23.417 5.4803,32.92593 1.8367,5.10577 5.2076,14.45822 7.491,20.78322 2.2834,6.325 5.1502,12.625 6.3707,14 1.2204,1.375 3.7585,4.75 5.6402,7.5 1.8817,2.75 10.0689,11.55194 18.1939,19.55986 13.58,13.38442 15.0915,15.24124 18.7224,23 2.1723,4.64208 4.8629,11.81514 5.9791,15.94014 3.8797,14.33875 4.8949,17.82736 5.4481,18.7226 1.0657,1.72428 2.7905,25.85934 2.6997,37.7774 -0.053,6.99347 -0.6785,14.08605 -1.4987,17 -1.5507,5.50936 -2.6314,10.99283 -5.1239,26 -3.342,20.12253 -8.7041,30.80149 -13.2056,26.3 z m -230.02571,-89.11445 c -1.1959,-1.27295 -2.1743,-2.86151 -2.1743,-3.53013 0,-0.66863 -1.1395,-3.92297 -2.5322,-7.23188 -1.3927,-3.30891 -3.3625,-10.15785 -4.3773,-15.21987 -2.072,-10.33484 -1.6814,-16.22464 1.7376,-26.20367 1.1306,-3.3 2.8441,-8.7 3.8078,-12 0.9636,-3.3 5.8678,-14.1 10.8982,-24 8.1112,-15.96328 9.3328,-19.07493 10.7964,-27.5 3.6958,-21.27522 3.0461,-32.42637 -2.4392,-41.85998 -1.5082,-2.59398 -1.6906,-3.67688 -0.8,-4.75 3.3853,-4.07901 10.4877,1.97447 12.0352,10.2577 0.485,2.59588 2.463,7.91997 4.3956,11.8313 1.9326,3.91133 3.7263,8.21466 3.986,9.56294 0.2596,1.34829 0.9386,2.60693 1.5087,2.79698 0.5702,0.19005 1.9771,2.21654 3.1264,4.50331 1.1494,2.28676 2.6792,4.83275 3.3995,5.65775 0.7203,0.825 1.7408,4.65 2.2678,8.5 1.783,13.02668 -2.4633,29.28521 -9.8194,37.59778 -12.9647,14.65016 -19.2737,24.19026 -25.5388,38.61784 -3.6244,8.34642 -3.8268,9.37314 -4.0598,20.59323 -0.3002,14.45134 -1.6832,17.20402 -6.2182,12.3767 z m 727.01291,-25.37522 c -0.5212,-0.99568 -1.6899,-5.18533 -2.5969,-9.31033 -1.7812,-8.10038 -8.9035,-31.61627 -11.0548,-36.5 -0.7269,-1.65 -1.8872,-4.575 -2.5785,-6.5 -2.3064,-6.42187 -6.2163,-15.30874 -12.9791,-29.5 -2.621,-5.5 -5.332,-11.79011 -6.0245,-13.97803 -2.0636,-6.52016 -10.4522,-19.57286 -17.0449,-26.52197 -3.3916,-3.575 -7.9996,-8.44803 -10.2399,-10.82897 -2.2403,-2.38093 -5.4448,-5.03512 -7.121,-5.89821 -1.6762,-0.86309 -4.3976,-2.57794 -6.0476,-3.81078 -3.5004,-2.6154 -14.9358,-8.46204 -16.5509,-8.46204 -0.6094,0 -3.8847,-1.05218 -7.2785,-2.33818 -3.3939,-1.286 -10.6706,-3.35604 -16.1706,-4.60008 -12.9427,-2.92753 -13.7487,-3.27404 -21.7873,-9.36642 -6.4166,-4.86319 -8.724,-8.24998 -7.2478,-10.63848 1.222,-1.97731 3.5989,-1.0635 10.005,3.84648 7.187,5.50856 14.998,8.80486 24.361,10.28051 3.482,0.54877 8.657,2.0238 11.5,3.27784 2.843,1.25403 6.7441,2.58448 8.6691,2.95656 3.7649,0.7277 9.8125,3.07686 19.7426,7.66893 3.4334,1.58776 8.1584,3.18382 10.5,3.54681 2.3581,0.36556 5.891,1.9391 7.9192,3.52719 2.014,1.57695 5.2869,3.54618 7.2731,4.37607 1.9861,0.82988 4.4315,2.32921 5.4342,3.33184 1.0026,1.00263 3.8244,3.20003 6.2707,4.88312 2.4463,1.68309 6.0031,4.52573 7.904,6.31697 3.5231,3.31989 23.6135,14.57424 29.9562,16.78108 1.925,0.66977 5.075,2.23738 7,3.48357 3.775,2.44386 17.578,9.29046 30.601,15.17884 6.8101,3.07921 9.1306,4.80418 14.5626,10.82512 4.1663,4.61811 7.8053,10.00394 10.2444,15.16223 2.0806,4.4 5.9247,12.5 8.5425,18 7.263,15.25952 8.0495,17.30283 8.0495,20.91148 0,1.839 -0.6692,3.89898 -1.487,4.57774 -2.101,1.74364 -6.2196,0.44657 -7.7377,-2.4368 -1.3069,-2.4822 -6.3253,-6.55163 -10.7753,-8.73776 -1.375,-0.67548 -4.4394,-2.96914 -6.8097,-5.09702 -2.3703,-2.12788 -5.9703,-4.63353 -8,-5.5681 -2.0297,-0.93458 -5.7153,-3.0036 -8.1903,-4.59782 -10.2346,-6.59237 -26.5075,-11.97886 -29.8478,-9.87989 -1.3636,0.85688 -1.7407,3.46493 -2.1587,14.93318 -0.2786,7.64225 -0.9033,14.51504 -1.3881,15.27287 -0.4848,0.75784 -1.3878,7.05282 -2.0067,13.98885 -0.93,10.42404 -1.4146,12.66672 -2.7944,12.93245 -0.9182,0.17681 -2.0958,-0.49317 -2.6171,-1.48885 z m -239.6872,-51.35255 c -2.75,-1.6178 -5.5384,-2.94513 -6.1964,-2.94962 -6.0447,-0.0412 -29.2412,-21.2301 -39.1742,-35.78372 -9.009,-13.19972 -12.5437,-34.06499 -9.7284,-57.42649 1.4334,-11.89416 1.8509,-13.3278 6.5649,-22.54063 2.7687,-5.41122 5.0341,-10.33121 5.0341,-10.9333 0,-1.86866 12.8925,-13.26139 15.7722,-13.93743 1.5003,-0.35221 4.0778,-1.89809 5.7278,-3.43529 3.7312,-3.4761 13.9223,-8.07914 18.2253,-8.23183 4.2114,-0.14944 8.2747,3.54906 8.2747,7.53182 0,3.93514 -5.4063,23.00775 -9.9915,35.24871 -2.0602,5.5 -4.2634,13.6 -4.8961,18 -0.6326,4.4 -1.612,10.67683 -2.1763,13.94851 -1.2417,7.19864 -1.6446,11.03417 -2.5338,24.12155 -0.5551,8.16962 -0.3961,10.52863 0.8427,12.5 0.8398,1.33647 2.4838,5.37378 3.6532,8.97181 2.6742,8.22748 9.7408,20.3789 14.5143,24.95813 4.7196,4.52756 7.9324,9.65891 7.2161,11.52538 -0.8908,2.32145 -5.6597,1.64968 -11.1286,-1.5676 z m 58.4332,-13.75245 c -1.3383,-1.02891 -6.0332,-3.80324 -10.4332,-6.16516 -10.6937,-5.74042 -14.2633,-8.70192 -20.8406,-17.29053 -6.7591,-8.82596 -9.2263,-14.1984 -10.6984,-23.29665 -1.2655,-7.82138 -0.1329,-14.7997 4.2641,-26.27228 2.2105,-5.76767 2.9715,-6.66673 8.717,-10.29956 3.4623,-2.18915 7.4792,-3.97769 8.9265,-3.97453 20.2545,0.0442 21.1655,0.12747 23.1546,2.11654 2.6273,2.62736 2.4977,4.01932 -0.7732,8.30482 -7.6569,10.03193 -9.4749,12.88113 -11.6722,18.29268 -4.2677,10.5109 -4.7673,16.00071 -2.5608,28.13865 1.074,5.90738 1.9595,11.10546 1.9678,11.5513 0.01,0.44583 3.6385,4.43387 8.0669,8.8623 7.7835,7.78349 9.3746,10.92873 5.87,11.60365 -0.8554,0.16473 -2.6502,-0.54232 -3.9885,-1.57123 z"
       id="path3035"
       inkscape:connector-curvature="0" />
  </g>
</svg>
